<svg xmlns="http://www.w3.org/2000/svg" width="40" height="40"><path style="stroke:none;fill-rule:nonzero;fill:#563d7c;fill-opacity:1" d="M0 34.844A5.156 5.156 0 0 0 5.156 40h29.688A5.156 5.156 0 0 0 40 34.844V5.156A5.156 5.156 0 0 0 34.844 0H5.156A5.156 5.156 0 0 0 0 5.156Zm0 0"/><path style="stroke:none;fill-rule:nonzero;fill:#fff;fill-opacity:1" d="M16.586 17.695v-5.668h4.988c.473 0 .934.043 1.371.121.442.079.832.22 1.172.422.34.203.61.489.813.848.207.363.308.828.308 1.39 0 1.02-.308 1.755-.918 2.208-.61.453-1.39.68-2.34.68Zm-5.324-9.804v24.218h11.734c1.086 0 2.145-.136 3.172-.406a8.592 8.592 0 0 0 2.75-1.254 6.182 6.182 0 0 0 1.914-2.191c.477-.89.715-1.95.715-3.168 0-1.516-.367-2.813-1.102-3.887-.738-1.074-1.851-1.824-3.343-2.254 1.085-.52 1.906-1.187 2.46-2.004.555-.812.829-1.828.829-3.05 0-1.13-.184-2.082-.559-2.848a4.642 4.642 0 0 0-1.578-1.852c-.676-.46-1.492-.797-2.442-1-.949-.203-2-.304-3.152-.304Zm5.324 20.082v-6.649h5.8c1.153 0 2.083.266 2.782.797.703.531 1.05 1.418 1.05 2.66 0 .633-.105 1.157-.32 1.563-.214.406-.503.73-.867.965-.36.238-.777.406-1.254.511a7.106 7.106 0 0 1-1.492.153Zm0 0"/></svg>