<svg xmlns="http://www.w3.org/2000/svg" width="40" height="40" viewBox="0 0 40 45"><path style="stroke:none;fill-rule:nonzero;fill:#a179dc;fill-opacity:1" d="M39.934 13.195c0-.754-.164-1.422-.489-1.992-.32-.562-.8-1.035-1.445-1.41C32.684 6.73 27.363 3.672 22.047.605c-1.434-.828-2.82-.796-4.242.04-2.117 1.25-12.711 7.32-15.871 9.148-1.297.754-1.93 1.902-1.93 3.402C0 19.36.004 25.523 0 31.687c0 .739.156 1.395.469 1.958.32.578.804 1.066 1.465 1.445 3.156 1.828 13.754 7.898 15.867 9.148 1.426.84 2.812.867 4.246.04C27.363 41.21 32.684 38.151 38 35.09c.66-.383 1.148-.867 1.469-1.445.312-.567.465-1.22.465-1.958V13.195"/><path style="stroke:none;fill-rule:nonzero;fill:#280068;fill-opacity:1" d="M20.027 22.383.47 33.645c.32.578.804 1.066 1.465 1.445 3.156 1.828 13.754 7.898 15.867 9.148 1.426.84 2.812.867 4.246.04C27.363 41.21 32.684 38.151 38 35.09c.66-.383 1.148-.867 1.469-1.445L20.027 22.383"/><path style="stroke:none;fill-rule:nonzero;fill:#390091;fill-opacity:1" d="M39.934 13.195c0-.754-.164-1.422-.489-1.992l-19.418 11.18L39.47 33.645c.312-.567.465-1.22.465-1.958V13.195"/><path style="stroke:none;fill-rule:nonzero;fill:#fff;fill-opacity:1" d="M31.547 18.172v2.105h2.105v-2.105h1.051v2.105h2.106v1.051h-2.106v2.106h2.106v1.054h-2.106v2.106h-1.05v-2.106h-2.106v2.106h-1.055v-2.106h-2.105v-1.054h2.105v-2.106h-2.105v-1.05h2.105v-2.106Zm2.105 3.156h-2.105v2.106h2.105Zm0 0"/><path style="stroke:none;fill-rule:nonzero;fill:#fff;fill-opacity:1" d="M20.07 7.598c5.492 0 10.285 2.98 12.856 7.414l-.028-.043-6.46 3.722a7.383 7.383 0 0 0-6.282-3.64h-.086a7.39 7.39 0 1 0 0 14.781 7.387 7.387 0 0 0 6.442-3.766l-.032.055 6.454 3.734c-2.54 4.399-7.27 7.372-12.696 7.43h-.168c-5.508 0-10.316-3-12.875-7.457a14.738 14.738 0 0 1-1.968-7.387c0-8.199 6.648-14.843 14.843-14.843Zm0 0"/></svg>