<svg xmlns="http://www.w3.org/2000/svg" xmlns:xlink="http://www.w3.org/1999/xlink" width="40" height="40"><defs><linearGradient id="d" gradientUnits="userSpaceOnUse" x1="-825.508" y1="1338.301" x2="-825.508" y2="1419.102" gradientTransform="matrix(.07427 0 0 -.07427 77.68 123.194)"><stop offset=".387" style="stop-color:#d1d3d4;stop-opacity:0"/><stop offset="1" style="stop-color:#d1d3d4;stop-opacity:1"/></linearGradient><linearGradient id="f" gradientUnits="userSpaceOnUse" x1="-874.103" y1="1302.263" x2="-680.039" y2="1302.263" gradientTransform="matrix(.07427 0 0 -.07427 77.68 123.194)"><stop offset="0" style="stop-color:#e8e7e5;stop-opacity:1"/><stop offset="1" style="stop-color:#fff;stop-opacity:1"/></linearGradient><linearGradient id="i" gradientUnits="userSpaceOnUse" x1="-883.032" y1="1442.031" x2="-672.341" y2="1442.031" gradientTransform="matrix(.07427 0 0 -.07427 77.68 123.194)"><stop offset="0" style="stop-color:#e8e7e5;stop-opacity:1"/><stop offset="1" style="stop-color:#fff;stop-opacity:1"/></linearGradient><linearGradient id="e" gradientUnits="userSpaceOnUse" x1="-724.552" y1="1378.602" x2="-724.552" y2="1462.591" gradientTransform="matrix(.07427 0 0 -.07427 77.68 123.194)"><stop offset=".387" style="stop-color:#d1d3d4;stop-opacity:0"/><stop offset="1" style="stop-color:#d1d3d4;stop-opacity:1"/></linearGradient><clipPath id="b"><path d="M0 0h40v40H0z"/></clipPath><clipPath id="c"><path d="M0 0h40v40H0z"/></clipPath><mask id="h"><g filter="url(#a)"><path style="fill:#000;fill-opacity:.0509804;stroke:none" d="M0 0h40v40H0z"/></g></mask><mask id="k"><g filter="url(#a)"><path style="fill:#000;fill-opacity:.0509804;stroke:none" d="M0 0h40v40H0z"/></g></mask><g id="g" clip-path="url(#b)"><path style="stroke:none;fill-rule:nonzero;fill:#000;fill-opacity:1" d="M19.992 20.816H12.75l.242 2.985 7 .023Zm0 7.985-.035.008-3.398-.856-.207-2.473h-3.157l.414 4.77 6.383 1.887Zm0 0"/></g><g id="j" clip-path="url(#c)"><path style="stroke:none;fill-rule:nonzero;fill:#000;fill-opacity:1" d="M19.992 14.57h-7.894l.379 3.055h7.515Zm0 0"/></g><filter id="a" filterUnits="objectBoundingBox" x="0%" y="0%" width="100%" height="100%"><feColorMatrix in="SourceGraphic" values="0 0 0 0 1 0 0 0 0 1 0 0 0 0 1 0 0 0 1 0"/></filter></defs><path style="stroke:none;fill-rule:nonzero;fill:#2062af;fill-opacity:1" d="M30.117 34.719 20 37.44 9.883 34.72 7.55 9.426h24.898Zm0 0"/><path style="stroke:none;fill-rule:nonzero;fill:#3c9cd7;fill-opacity:1" d="M20 11.477V35.27l.023.003 8.188-2.203 1.887-21.593Zm0 0"/><path style="stroke:none;fill-rule:nonzero;fill:#000;fill-opacity:1" d="M14.258 5.71V4.208h2.195V2.559h-3.84v4.656h3.84V5.71Zm6.148-1.503h1.535V2.559h-3.843v1.648c.515.512.78.758 1.527 1.504h-1.527v1.504h3.843V5.71Zm5.446 0h1.535V2.559h-3.844v1.648c.516.512.785.758 1.527 1.504h-1.527v1.504h3.844V5.71Zm0 0"/><path style="stroke:none;fill-rule:nonzero;fill:#fff;fill-opacity:1" d="m19.992 17.8-7.242 3.016.242 2.985 7-2.992 7.445-3.184.31-3.055Zm0 0"/><path style="stroke:none;fill-rule:nonzero;fill:url(#d)" d="m12.75 20.816.242 2.985 7-2.992V17.8Zm0 0"/><path style="stroke:none;fill-rule:nonzero;fill:url(#e)" d="m27.746 14.57-7.754 3.23v3.009l7.445-3.184Zm0 0"/><path style="stroke:none;fill-rule:nonzero;fill:url(#f)" d="M12.762 20.816 13 23.801l10.742.035-.238 3.98-3.535.993-3.399-.856-.207-2.473h-3.156l.414 4.77 6.383 1.887 6.348-1.852.824-9.469Zm0 0"/><use xlink:href="#g" mask="url(#h)"/><path style="stroke:none;fill-rule:nonzero;fill:url(#i)" d="M12.098 14.57h15.648l-.308 3.055H12.476Zm0 0"/><use xlink:href="#j" mask="url(#k)"/></svg>