<svg xmlns="http://www.w3.org/2000/svg" width="40" height="40" viewBox="0 0 40 33"><path style="stroke:none;fill-rule:evenodd;fill:#364548;fill-opacity:1" d="M6.035 26.703v-2.512c0-.328.207-.593.555-.593h.098c.347 0 .558.265.558.593v5.29c0 1.289-.648 2.316-1.781 2.968a3.358 3.358 0 0 1-1.707.457h-.242c-1.313 0-2.356-.636-3.024-1.746a3.23 3.23 0 0 1-.465-1.68v-.234c0-1.293.649-2.316 1.778-2.973a3.401 3.401 0 0 1 1.71-.457h.243c.887 0 1.64.34 2.277.887Zm-4.797 2.66c0 .93.461 1.63 1.29 2.078.335.18.702.278 1.085.278.93 0 1.621-.434 2.098-1.207.219-.36.324-.754.324-1.172 0-.809-.39-1.438-1.05-1.906a2.283 2.283 0 0 0-1.348-.426c-1.016 0-1.746.504-2.184 1.398-.148.301-.215.621-.215.957Zm10.207-3.547h.168c1.403 0 2.469.668 3.145 1.872.27.48.414 1.007.414 1.558v.234c0 1.29-.645 2.317-1.777 2.97-.524.3-1.102.456-1.711.456h-.239c-1.312 0-2.355-.636-3.023-1.746a3.23 3.23 0 0 1-.465-1.68v-.234c0-1.293.652-2.312 1.777-2.973a3.362 3.362 0 0 1 1.711-.457Zm-2.277 3.547c0 .903.45 1.567 1.227 2.035.367.22.77.32 1.195.32.91 0 1.582-.452 2.047-1.206a2.15 2.15 0 0 0 .324-1.172c0-.844-.41-1.485-1.113-1.95a2.263 2.263 0 0 0-1.282-.382c-1.015 0-1.746.504-2.183 1.398-.149.301-.215.621-.215.957Zm11.039-2.261c-.184-.082-.523-.114-.723-.118-1.011-.039-1.742.52-2.172 1.399-.148.3-.218.62-.218.957 0 1.015.547 1.73 1.472 2.164.336.16.774.191 1.145.191.324 0 .785-.195 1.07-.332l.051-.023h.227l.023.004c.273.058.484.23.484.52v.116c0 .727-1.347.891-1.863.926-1.812.125-3.172-.855-3.687-2.554a3.022 3.022 0 0 1-.13-.895v-.238c0-1.29.65-2.309 1.778-2.965a3.327 3.327 0 0 1 1.711-.461h.238c.645 0 1.239.18 1.774.539l.043.027.027.047c.059.094.11.2.11.313v.117c0 .305-.235.469-.512.52l-.024.003h-.07c-.184 0-.594-.183-.754-.257Zm3.926.804c.472-.46.945-.922 1.422-1.379.133-.125.636-.664.832-.664h.218l.024.004c.277.059.484.23.484.52v.12c0 .2-.238.43-.367.567-.277.29-.57.567-.855.852l-1.465 1.457c.629.62 1.262 1.242 1.883 1.867.175.172.347.348.52.52.058.062.148.14.198.226.051.082.086.172.086.27v.125l-.008.027c-.066.27-.242.488-.546.488h-.098c-.2 0-.426-.222-.563-.347-.285-.262-.558-.54-.835-.805l-.93-.899v1.434c0 .328-.211.594-.555.594h-.098c-.347 0-.558-.266-.558-.594v-8.074c0-.328.21-.594.558-.594h.098c.344 0 .555.266.555.594Zm15.09-2.043h.12c.364 0 .606.242.606.594 0 .496-.476.621-.894.621-.543 0-1.063.324-1.438.684-.465.453-.672 1.035-.672 1.672v2.878c0 .329-.207.594-.558.594h-.094c-.348 0-.559-.265-.559-.593V29.27c0-1.172.582-2.125 1.547-2.793a3.359 3.359 0 0 1 1.942-.614Zm-8.606 5.707c.442.153.945.13 1.399.051.23-.094.82-.348 1.039-.312l.03.007.032.016c.133.063.262.152.328.285.16.309.082.621-.226.801l-.106.059c-1.148.648-2.37.558-3.515-.051a3.203 3.203 0 0 1-1.274-1.246l-.074-.125c-.734-1.254-.637-2.57.195-3.766.29-.41.664-.73 1.102-.98l.164-.094c1.082-.613 2.242-.57 3.352-.031.597.289 1.082.718 1.417 1.289l.06.101c.241.41-.071.77-.395 1.016-.38.285-.758.629-1.118.933l-2.41 2.047Zm-1.039-.718c.899-.754 1.797-1.512 2.695-2.274.305-.258.641-.527.946-.8-.246-.301-.653-.52-.996-.65-.7-.26-1.387-.175-2.028.188-.84.477-1.195 1.235-1.164 2.176.012.371.114.73.313 1.043.07.113.148.219.234.317ZM23.047 7.02h3.57v3.585h1.809a7.99 7.99 0 0 0 2.48-.406 6.41 6.41 0 0 0 1.207-.535c-.504-.648-.761-1.465-.836-2.27-.105-1.093.121-2.519.875-3.378l.375-.426.45.351c1.125.891 2.074 2.133 2.238 3.551 1.36-.394 2.953-.3 4.148.38l.489.276-.258.497c-1.012 1.937-3.125 2.539-5.192 2.433-3.093 7.567-9.828 11.149-17.992 11.149-4.219 0-8.09-1.547-10.293-5.223l-.039-.063-.32-.64c-.746-1.617-.992-3.39-.824-5.164l.05-.532H8.04V7.02h3.574V3.508h7.145V0h4.289v7.02"/><path style="stroke:none;fill-rule:evenodd;fill:#22a0c8;fill-opacity:1" d="M34.621 8.348c.238-1.828-1.156-3.266-2.02-3.95-.996 1.133-1.148 4.094.415 5.344-.875.762-2.711 1.45-4.59 1.45H5.527c-.183 1.93.16 3.706.95 5.226l.257.469c.168.273.348.539.543.793.942.062 1.809.082 2.602.062 1.562-.031 2.836-.215 3.8-.543.141-.047.301.028.348.168a.266.266 0 0 1-.168.344 8.21 8.21 0 0 1-.402.125c-.758.21-1.574.355-2.625.418.063.004-.066.012-.066.012-.036 0-.079.004-.118.007-.414.024-.859.028-1.316.028-.5 0-.988-.008-1.539-.035l-.016.007c1.91 2.106 4.891 3.372 8.633 3.372 7.91 0 14.625-3.45 17.598-11.184 2.11.21 4.137-.316 5.058-2.086-1.468-.832-3.359-.566-4.445-.027"/><path style="stroke:none;fill-rule:evenodd;fill:#37b1d9;fill-opacity:1" d="M34.621 8.348c.238-1.828-1.156-3.266-2.02-3.95-.996 1.133-1.148 4.094.415 5.344-.875.762-2.711 1.45-4.59 1.45H6.883c-.094 2.953 1.023 5.195 2.996 6.55 1.562-.031 2.836-.215 3.8-.543.141-.047.301.028.348.168a.266.266 0 0 1-.168.344 8.21 8.21 0 0 1-.402.125c-.758.21-1.645.375-2.695.437 0 0-.024-.023-.028-.023 2.696 1.355 6.602 1.352 11.079-.336 5.019-1.894 9.69-5.508 12.953-9.633-.051.02-.098.043-.145.067"/><path style="stroke:none;fill-rule:evenodd;fill:#1b81a5;fill-opacity:1" d="M5.57 13.535c.14 1.035.45 2 .907 2.883l.257.469c.168.273.348.539.543.793.942.062 1.809.082 2.602.062 1.562-.031 2.836-.215 3.8-.543.141-.047.301.028.348.168a.266.266 0 0 1-.168.344 8.21 8.21 0 0 1-.402.125c-.758.21-1.64.363-2.691.43-.036 0-.098 0-.133.004-.414.023-.856.035-1.313.035-.5 0-1.011-.008-1.562-.035 1.91 2.105 4.91 3.375 8.652 3.375 6.774 0 12.668-2.528 16.09-8.11H5.57"/><path style="stroke:none;fill-rule:evenodd;fill:#1d91b4;fill-opacity:1" d="M7.09 13.535c.402 1.817 1.379 3.238 2.789 4.207 1.562-.031 2.836-.215 3.8-.543.141-.047.301.028.348.168a.266.266 0 0 1-.168.344 8.21 8.21 0 0 1-.402.125c-.758.21-1.656.363-2.71.43 2.694 1.355 6.589 1.336 11.066-.352 2.707-1.023 5.316-2.547 7.652-4.379H7.09"/><path style="stroke:none;fill-rule:evenodd;fill:#23a3c2;fill-opacity:1" d="M8.633 7.605h3.097v3.04H8.633Zm.258.254h.246v2.536H8.89Zm.46 0h.254v2.536h-.253Zm.47 0h.253v2.536H9.82Zm.468 0h.254v2.536h-.254Zm.469 0h.254v2.536h-.254Zm.469 0h.246v2.536h-.246ZM12.207 4.094h3.098v3.043h-3.098Zm.258.254h.246v2.535h-.246Zm.46 0h.255v2.535h-.254Zm.47 0h.253v2.535h-.253Zm.468 0h.254v2.535h-.254Zm.469 0h.254v2.535h-.254Zm.469 0h.246v2.535H14.8Zm0 0"/><path style="stroke:none;fill-rule:evenodd;fill:#34bbde;fill-opacity:1" d="M12.207 7.605h3.098v3.04h-3.098Zm.258.254h.246v2.536h-.246Zm.46 0h.255v2.536h-.254Zm.47 0h.253v2.536h-.253Zm.468 0h.254v2.536h-.254Zm.469 0h.254v2.536h-.254Zm.469 0h.246v2.536H14.8Zm0 0"/><path style="stroke:none;fill-rule:evenodd;fill:#23a3c2;fill-opacity:1" d="M15.781 7.605h3.094v3.04h-3.094Zm.258.254h.242v2.536h-.242Zm.457 0h.254v2.536h-.254Zm.469 0h.258v2.536h-.258Zm.473 0h.253v2.536h-.253Zm.468 0h.254v2.536h-.254Zm.469 0h.242v2.536h-.242Zm0 0"/><path style="stroke:none;fill-rule:evenodd;fill:#34bbde;fill-opacity:1" d="M15.781 4.094h3.094v3.043h-3.094Zm.258.254h.242v2.535h-.242Zm.457 0h.254v2.535h-.254Zm.469 0h.258v2.535h-.258Zm.473 0h.253v2.535h-.253Zm.468 0h.254v2.535h-.254Zm.469 0h.242v2.535h-.242ZM19.352 7.605h3.097v3.04h-3.097Zm.257.254h.246v2.536h-.246Zm.461 0h.254v2.536h-.254Zm.47 0h.253v2.536h-.254Zm.468 0h.254v2.536h-.254Zm.469 0h.253v2.536h-.253Zm.468 0h.246v2.536h-.246Zm0 0"/><path style="stroke:none;fill-rule:evenodd;fill:#23a3c2;fill-opacity:1" d="M19.352 4.094h3.097v3.043h-3.097Zm.257.254h.246v2.535h-.246Zm.461 0h.254v2.535h-.254Zm.47 0h.253v2.535h-.254Zm.468 0h.254v2.535h-.254Zm.469 0h.253v2.535h-.253Zm.468 0h.246v2.535h-.246Zm0 0"/><path style="stroke:none;fill-rule:evenodd;fill:#34bbde;fill-opacity:1" d="M19.352.586h3.097v3.039h-3.097Zm.257.254h.246v2.535h-.246Zm.461 0h.254v2.535h-.254Zm.47 0h.253v2.535h-.254Zm.468 0h.254v2.535h-.254Zm.469 0h.253v2.535h-.253Zm.468 0h.246v2.535h-.246Zm0 0"/><path style="stroke:none;fill-rule:evenodd;fill:#23a3c2;fill-opacity:1" d="M22.926 7.605h3.097v3.04h-3.097Zm.258.254h.246v2.536h-.246Zm.46 0h.254v2.536h-.253Zm.47 0h.253v2.536h-.254Zm.468 0h.254v2.536h-.254Zm.469 0h.254v2.536h-.254Zm.469 0h.246v2.536h-.246Zm0 0"/><path style="stroke:none;fill-rule:evenodd;fill:#d3ecec;fill-opacity:1" d="M15.11 15.578c.472 0 .855.375.855.84a.85.85 0 0 1-.856.84.85.85 0 0 1-.855-.84c0-.465.383-.84.855-.84"/><path style="stroke:none;fill-rule:evenodd;fill:#364548;fill-opacity:1" d="M15.11 15.816c.078 0 .152.016.222.04a.246.246 0 0 0-.125.214c0 .133.11.242.25.242.094 0 .176-.05.219-.125.031.07.047.149.047.231a.607.607 0 0 1-.614.602.606.606 0 0 1-.609-.602c0-.332.273-.602.61-.602M0 13.84h39.738c-.863-.215-2.738-.508-2.43-1.621-1.57 1.789-5.367 1.254-6.324.37-1.066 1.52-7.273.942-7.707-.241-1.336 1.543-5.48 1.543-6.816 0-.434 1.183-6.64 1.761-7.707.242-.957.883-4.75 1.418-6.324-.371.308 1.113-1.563 1.406-2.43 1.62"/><path style="stroke:none;fill-rule:evenodd;fill:#bdd9d7;fill-opacity:1" d="M17.379 21.625c-2.113-.984-3.274-2.328-3.922-3.79-.785.22-1.73.36-2.828.423a30.912 30.912 0 0 1-2.965-.012c1.938 1.902 4.324 3.371 8.746 3.399.324 0 .649-.008.969-.02"/><path style="stroke:none;fill-rule:evenodd;fill:#d3ecec;fill-opacity:1" d="M14.242 19.184a7.377 7.377 0 0 1-.785-1.348c-.785.219-1.73.36-2.828.422.754.402 1.832.773 3.613.926"/></svg>