<svg xmlns="http://www.w3.org/2000/svg" width="40" height="40"><path style="stroke:none;fill-rule:nonzero;fill:#e535ab;fill-opacity:1" d="m5.746 30.266-1.437-.828L20.324 1.698l1.438.828Zm0 0"/><path style="stroke:none;fill-rule:nonzero;fill:#e535ab;fill-opacity:1" d="M3.98 27.219h32.032v1.66H3.98Zm0 0"/><path style="stroke:none;fill-rule:nonzero;fill:#e535ab;fill-opacity:1" d="m20.637 37.402-16.024-9.25.832-1.437 16.02 9.25ZM34.55 13.293l-16.019-9.25.828-1.438 16.024 9.25Zm0 0"/><path style="stroke:none;fill-rule:nonzero;fill:#e535ab;fill-opacity:1" d="m5.45 13.29-.833-1.438 16.024-9.25.828 1.437Zm0 0"/><path style="stroke:none;fill-rule:nonzero;fill:#e535ab;fill-opacity:1" d="M34.258 30.266 18.242 2.527 19.68 1.7l16.015 27.739ZM5.25 10.75h1.66v18.5H5.25Zm0 0"/><path style="stroke:none;fill-rule:nonzero;fill:#e535ab;fill-opacity:1" d="M33.09 10.75h1.66v18.5h-1.66Zm0 0"/><path style="stroke:none;fill-rule:nonzero;fill:#e535ab;fill-opacity:1" d="m20.352 36.7-.723-1.255 13.933-8.047.723 1.258Zm0 0"/><path style="stroke:none;fill-rule:nonzero;fill:#e535ab;fill-opacity:1" d="M36.95 29.79a3.493 3.493 0 0 1-4.77 1.28 3.5 3.5 0 0 1-1.282-4.77 3.497 3.497 0 0 1 4.774-1.28 3.477 3.477 0 0 1 1.277 4.77M9.09 13.7a3.493 3.493 0 0 1-4.77 1.28 3.493 3.493 0 0 1-1.28-4.77 3.493 3.493 0 0 1 4.769-1.28 3.495 3.495 0 0 1 1.28 4.77M3.05 29.79a3.497 3.497 0 0 1 1.278-4.77 3.5 3.5 0 0 1 4.774 1.28 3.502 3.502 0 0 1-1.282 4.77 3.49 3.49 0 0 1-4.77-1.28M30.91 13.7a3.495 3.495 0 0 1 1.281-4.77 3.496 3.496 0 0 1 4.77 1.28c.96 1.669.39 3.802-1.281 4.77a3.493 3.493 0 0 1-4.77-1.28M20 39.578a3.484 3.484 0 0 1-3.488-3.488A3.484 3.484 0 0 1 20 32.602a3.49 3.49 0 0 1 0 6.977M20 7.398a3.484 3.484 0 0 1-3.488-3.488A3.484 3.484 0 0 1 20 .422a3.484 3.484 0 0 1 3.488 3.488A3.484 3.484 0 0 1 20 7.398"/></svg>