<svg xmlns="http://www.w3.org/2000/svg" width="40" height="40"><path style="stroke:none;fill-rule:nonzero;fill:#000;fill-opacity:1" d="M8.469 0h1.8v1.781h1.649V0h1.805v5.395h-1.805v-1.81H10.27v1.81H8.469ZM16.094 1.79h-1.586V0h4.976v1.79h-1.59v3.605h-1.8ZM20.273 0h1.88l1.16 1.895L24.465 0h1.883v5.395H24.55V2.719l-1.238 1.918h-.032L22.04 2.719v2.676h-1.766ZM27.242 0h1.805v3.61h2.535v1.785h-4.34Zm0 0"/><path style="stroke:none;fill-rule:nonzero;fill:#e34e26;fill-opacity:1" d="M8.367 36.777 5.781 7.757h28.414l-2.59 29.02L19.98 40Zm0 0"/><path style="stroke:none;fill-rule:nonzero;fill:#ef662a;fill-opacity:1" d="M19.988 10.129v27.406l9.399-2.605 2.215-24.801Zm0 0"/><path style="stroke:none;fill-rule:nonzero;fill:#fff;fill-opacity:1" d="m11.074 13.688.961 10.765h12.336l-.414 4.613-3.973 1.075-3.964-1.07-.266-2.966h-3.57l.511 5.715 7.29 2.024 7.296-2.024.98-10.925H15.29l-.324-3.645h13.617l.32-3.563Zm0 0"/><path style="stroke:none;fill-rule:nonzero;fill:#ebebeb;fill-opacity:1" d="M19.988 13.688h-8.914l.961 10.765h7.953v-3.558H15.29l-.324-3.645h5.023ZM19.988 30.14h-.004l-3.964-1.07-.266-2.965h-3.57l.511 5.715 7.29 2.024h.003Zm0 0"/></svg>