<svg xmlns="http://www.w3.org/2000/svg" width="40" height="40"><path style="fill:#f7df1e;fill-opacity:1;stroke:none" d="M0 0h40v40H0z"/><path style="stroke:none;fill-rule:nonzero;fill:#000;fill-opacity:1" d="m10.516 33.426 3.062-1.852c.59 1.047 1.129 1.934 2.418 1.934 1.234 0 2.012-.485 2.012-2.363V18.363h3.762V31.2c0 3.89-2.286 5.664-5.614 5.664-3.008 0-4.754-1.558-5.64-3.437M23.809 33.023l3.062-1.77c.805 1.313 1.852 2.282 3.703 2.282 1.559 0 2.551-.781 2.551-1.855 0-1.285-1.02-1.742-2.738-2.496l-.938-.403c-2.715-1.152-4.512-2.605-4.512-5.664 0-2.82 2.149-4.969 5.504-4.969 2.391 0 4.11.832 5.344 3.008l-2.926 1.88c-.644-1.153-1.343-1.61-2.418-1.61-1.101 0-1.8.695-1.8 1.61 0 1.128.699 1.585 2.312 2.28l.938.407c3.195 1.367 4.996 2.765 4.996 5.906 0 3.383-2.66 5.234-6.23 5.234-3.493 0-5.747-1.664-6.848-3.84"/></svg>