<svg xmlns="http://www.w3.org/2000/svg" width="40" height="40" viewBox="0 0 40 44"><path style="stroke:none;fill-rule:nonzero;fill:#c63d14;fill-opacity:1" d="M37.496 21.645c0-2.262-1.84-4.094-4.113-4.094-.145 0-.29.008-.43.023L38.598 1h-24l5.64 16.559c-.082-.004-.164-.008-.25-.008-2.27 0-4.113 1.832-4.113 4.094a4.098 4.098 0 0 0 2.863 3.898 17.875 17.875 0 0 1-3.23 4.047c-1.703 1.601-3.653 2.812-5.762 3.558-2.512-1.28-3.7-4.136-2.629-6.636.121-.285.246-.57.363-.856a4.098 4.098 0 0 0 3.176-3.984c0-2.258-1.844-4.09-4.113-4.09-2.27 0-4.113 1.832-4.113 4.09 0 1.387.695 2.61 1.754 3.351-1.02 2.305-2.516 4.72-2.98 7.516-.56 3.352 0 6.91 2.91 8.918 6.784 4.68 14.152-2.902 21.917-4.805 2.813-.691 5.903-.582 8.383-2.011 1.86-1.07 3.09-2.852 3.438-4.848.343-1.973-.16-3.934-1.313-5.527a4.06 4.06 0 0 0 .957-2.621Zm-13.394.011v-.011a4.095 4.095 0 0 0-1.985-3.504l4.488-9.032 4.5 9.13a4.08 4.08 0 0 0-1.832 3.406v.085Zm0 0"/><path style="stroke:none;fill-rule:nonzero;fill:#fff;fill-opacity:1" d="M38.5 21.645c0-2.489-1.8-4.563-4.172-5.004L40 0H13.2l5.675 16.676c-2.285.504-4.004 2.539-4.004 4.969a5.08 5.08 0 0 0 2.422 4.32 17.113 17.113 0 0 1-2.477 2.898c-1.504 1.414-3.18 2.485-4.984 3.188-1.82-1.137-2.59-3.281-1.789-5.149l.062-.148c.04-.09.079-.184.118-.274 1.996-.695 3.437-2.585 3.437-4.808 0-2.809-2.297-5.09-5.117-5.09s-5.117 2.281-5.117 5.09c0 1.418.586 2.7 1.527 3.625-.172.363-.351.73-.535 1.105-.86 1.762-1.836 3.758-2.207 5.973-.73 4.398.45 7.918 3.332 9.902 1.746 1.207 3.523 1.68 5.309 1.68 3.363 0 6.765-1.68 10.093-3.324 2.399-1.188 4.875-2.41 7.325-3.012.91-.223 1.847-.36 2.84-.5 1.968-.285 4.003-.574 5.808-1.613 2.086-1.203 3.52-3.227 3.922-5.543.347-1.988-.07-3.98-1.09-5.672a5.03 5.03 0 0 0 .75-2.648Zm-2.008 0c0 1.703-1.394 3.09-3.11 3.09a3.103 3.103 0 0 1-3.105-3.09 3.103 3.103 0 0 1 3.106-3.094 3.104 3.104 0 0 1 3.11 3.094ZM37.2 2l-5.008 14.691c-.218.055-.43.118-.632.2l-4.95-10.043-4.96 9.98a4.552 4.552 0 0 0-.66-.176L16 2ZM19.99 18.55a3.104 3.104 0 0 1 3.109 3.095c0 1.703-1.395 3.09-3.11 3.09-1.715 0-3.11-1.387-3.11-3.09a3.104 3.104 0 0 1 3.11-3.094Zm-13.446.028a3.103 3.103 0 0 1 3.105 3.094 3.1 3.1 0 0 1-3.105 3.094 3.104 3.104 0 0 1-3.11-3.094 3.107 3.107 0 0 1 3.11-3.094Zm30.316 11.047c-.3 1.73-1.375 3.246-2.949 4.152-1.469.844-3.226 1.098-5.086 1.364-.996.144-2.027.293-3.035.539-2.664.652-5.242 1.93-7.734 3.16-4.992 2.469-9.305 4.597-13.367 1.797-2.977-2.055-2.84-5.856-2.493-7.934.32-1.93 1.188-3.707 2.028-5.426.148-.297.289-.586.425-.875a5.18 5.18 0 0 0 1.325.328c-.856 2.81.488 5.864 3.312 7.31l.387.198.41-.148c2.23-.79 4.29-2.059 6.113-3.774a18.887 18.887 0 0 0 3.028-3.64c.25.039.504.058.765.058 2.82 0 5.117-2.285 5.117-5.09a5.06 5.06 0 0 0-1.718-3.8l3.215-6.473 3.25 6.594a5.067 5.067 0 0 0-1.586 3.68c0 2.804 2.297 5.09 5.117 5.09 1.086 0 2.09-.34 2.918-.915a6.185 6.185 0 0 1 .558 3.805Zm0 0"/></svg>