<svg xmlns="http://www.w3.org/2000/svg" width="40" height="40" viewBox="0 0 40 9"><path style="stroke:none;fill-rule:evenodd;fill:#1a1918;fill-opacity:1" d="m38.258.672 1.676.008-3.368 4.527c-.082.113-.207.23-.27.379-.16.371-.327 1.184-.327 1.184l-1.532.007s.239-.847.231-1.3c-.008-.395-.211-.79-.324-1.184a19.328 19.328 0 0 1-.274-1.188h1.575l.218.864L38.258.672"/><path style="stroke:none;fill-rule:evenodd;fill:#1a1918;fill-opacity:1" d="M35.09 1.555c.308.183.5 1.203.5 1.203s-1.617.023-2.496.023h-.762L31.41 6.77H30s.879-4.332 1.086-5.122c.066-.253.46-.207 1.125-.207h1.059c.683 0 1.484-.09 1.82.114M28.52 3.496s.043-.254-.149-.55c-.164-.255-.316-.313-.75-.329-1.226-.035-1.203.867-1.203.867Zm1.332-1.031c.18.64-.165 2.156-.165 2.156s-1.789-.031-2.769 0c-.305.008-.668-.035-.758.106-.129.199.047.5.192.628.171.149.503.165.62.18.798.102 2.462.027 2.462.027l-.29 1.266s-2.351.117-3.527-.16a1.207 1.207 0 0 1-.597-.324c-.04-.043-.075-.102-.114-.153a1.454 1.454 0 0 1-.16-.277c-.266-.71.035-2.074.328-2.805.035-.082.078-.191.121-.28.059-.114.106-.243.149-.313.031-.047.07-.075.101-.121.035-.051.078-.102.117-.149.11-.125.231-.21.38-.32.492-.367 1.378-.649 2.44-.54.403.04 1.009.18 1.305.59.079.11.118.329.165.489ZM23.379 1.434l1.367-.008s-.762 3.594-1.152 5.344H22.02c-1.098 0-2.079.136-2.497-.645-.406-.762-.02-2.008.165-2.86.125-.597.398-1.824.398-1.824l1.414-.015s-.398 1.91-.566 2.867c-.059.34-.184.664-.055.914.125.242.293.258.816.27.164.003.703 0 .703 0l.98-4.043M16.973 4.023c.144-.507.351-1.054.324-1.511-.027-.485-.438-.93-.703-1.024-.801-.281-1.551.114-1.848.43-.383.414-.516.898-.652 1.566-.102.493-.184 1.016 0 1.399.328.683 1.347.535 2.445.539.16-.43.297-.918.434-1.399Zm1.898-1.996c.156 1.13-.441 2.375-.855 3.457.422.04.789-.004.816.028.027.039-.281 1.293-.39 1.297-.333.007-1.442.015-1.903.015-1.508 0-2.918.098-3.637-.644-.293-.305-.496-.825-.543-1.188-.082-.61.02-1.281.16-1.832.13-.5.297-.973.543-1.402C13.7.66 14.802-.156 16.648.03c.356.04.872.196 1.192.38.023.01.101.073.117.085.438.274.832.93.914 1.531ZM12.203 1.441c-.09.41-.183.88-.277 1.286h-1.524c.121-.45.211-.899.328-1.293.485 0 .938.007 1.473.007M10.352 3.105h1.464a67.8 67.8 0 0 1-.87 3.934c-.184.742-.31 1.281-.813 1.672-.047.035-.07.02-.11.055-.093.09-.52.191-.757.214-.387.043-.825.008-1.301-.003.125-.45.265-.993.375-1.399 1.16.14 1.187-.945 1.414-1.992.129-.606.523-2.238.598-2.48"/><path style="stroke:none;fill-rule:evenodd;fill:#21609b;fill-opacity:1" d="m6.93 5.855-.032.082c-.535 1.036-1.484 1.668-2.835 1.696a3.94 3.94 0 0 1-1.63-.324A4.186 4.186 0 0 1 .48 5.477c-.558-1.075-.66-2.575.504-3.692.016 0-.14.242-.125.242l-.03.106c-.84 2.605 1.745 4.84 4.257 4.586.601-.063 1.371-.39 1.844-.864"/><path style="stroke:none;fill-rule:evenodd;fill:#21609b;fill-opacity:1" d="M5.41 4.777c.633.004 1.293-.289 1.684-.703-.344.864-1.332 1.418-2.66 1.242-1.114-.148-2.172-1.257-2.282-2.37-.078-.813.207-1.298.676-1.884-.164.31-.226.543-.238.696-.18 1.754 1.406 3.012 2.82 3.02"/><path style="stroke:none;fill-rule:evenodd;fill:#21609b;fill-opacity:1" d="M7.031 2.602c-.101.222-.664.644-.914.699-.988.207-1.625-.258-1.957-.79a3.148 3.148 0 0 1-.156-.347C3.875 1.727 3.938 1.07 4.32.73c-.117.325-.133.7-.074.946.04.144.152.402.262.566.207.293.336.367.597.524.122.07.247.129.301.144.25.07.778.262 1.625-.308"/></svg>