<svg xmlns="http://www.w3.org/2000/svg" width="40" height="40" viewBox="0 0 40 41"><path style="stroke:none;fill-rule:nonzero;fill:#ff2d20;fill-opacity:1" d="M39.906 9.355c.016.055.024.11.024.165v8.75a.637.637 0 0 1-.325.55L32.2 23.047v8.379a.644.644 0 0 1-.32.554L16.422 40.8c-.035.02-.074.032-.113.048-.016.004-.028.011-.043.015a.6.6 0 0 1-.332 0c-.016-.004-.032-.011-.051-.02-.035-.011-.07-.023-.106-.042L.324 31.98A.639.639 0 0 1 0 31.425V5.184c0-.055.008-.114.023-.164.004-.02.016-.036.024-.055.012-.035.02-.07.039-.098.012-.023.031-.039.043-.058.02-.024.035-.051.058-.075.02-.02.043-.03.063-.046.023-.02.047-.04.07-.055h.004L8.051.223a.635.635 0 0 1 .644 0l7.727 4.41c.027.015.047.035.07.054.024.016.047.028.063.047.023.024.039.051.058.075.016.02.035.035.043.058.02.031.032.063.043.098.008.02.02.035.024.055.015.054.023.109.023.164v16.39l6.438-3.676V9.52c0-.055.007-.114.023-.165.004-.02.016-.035.023-.054a.727.727 0 0 1 .04-.098c.011-.023.03-.039.046-.058a.901.901 0 0 1 .055-.075c.02-.02.043-.03.063-.047.027-.02.046-.039.074-.054l7.726-4.41a.635.635 0 0 1 .645 0l7.726 4.41a.52.52 0 0 1 .075.054c.02.016.043.028.062.047.02.024.04.051.055.075.016.02.035.035.047.058a.727.727 0 0 1 .039.098c.008.02.02.035.023.054Zm-1.265 8.543v-7.273l-2.703 1.543-3.739 2.133v7.273Zm-7.727 13.16v-7.28l-3.676 2.081-10.496 5.938v7.348ZM1.29 6.29v24.77l14.168 8.086v-7.348l-7.402-4.152H8.05l-.004-.004c-.024-.012-.043-.036-.067-.051-.02-.016-.043-.031-.062-.047v-.004c-.023-.02-.035-.043-.055-.066-.015-.02-.035-.04-.047-.063-.015-.023-.023-.055-.035-.082a.553.553 0 0 1-.031-.07c-.008-.031-.008-.063-.012-.094-.004-.023-.011-.047-.011-.074V9.965L3.992 7.832Zm7.082-4.777L1.934 5.184 8.37 8.859l6.438-3.675Zm3.352 22.93 3.734-2.133V6.289l-2.703 1.543-3.738 2.133v16.02ZM31.559 5.847 25.117 9.52l6.442 3.675 6.433-3.675Zm-.645 8.453-3.738-2.133-2.703-1.543v7.273l3.734 2.133 2.707 1.543ZM16.098 30.69l9.445-5.343 4.719-2.672-6.434-3.672-7.406 4.23-6.75 3.852Zm0 0"/></svg>