<svg xmlns="http://www.w3.org/2000/svg" width="40" height="40" viewBox="0 0 40 32"><defs><linearGradient id="a" gradientUnits="userSpaceOnUse" x1="-2901.952" y1="923.573" x2="-2061.249" y2="1420.331" gradientTransform="matrix(.0019 0 0 -.00188 23.232 21.404)"><stop offset="0" style="stop-color:#909ca9;stop-opacity:1"/><stop offset="1" style="stop-color:#ededee;stop-opacity:1"/></linearGradient><linearGradient id="b" gradientUnits="userSpaceOnUse" x1="-2882.7" y1="10288.81" x2="-2206.249" y2="10288.81" gradientTransform="matrix(.0019 0 0 -.00188 23.232 21.404)"><stop offset="0" style="stop-color:#939fab;stop-opacity:1"/><stop offset="1" style="stop-color:#dcdee1;stop-opacity:1"/></linearGradient><radialGradient id="c" gradientUnits="userSpaceOnUse" cx="-14217.448" cy="7277.705" fx="-14217.448" fy="7277.705" r="898.12" gradientTransform="matrix(-.00182 -.00027 -.00055 .00361 2.336 -22.24)"><stop offset="0" style="stop-color:#ee352c;stop-opacity:1"/><stop offset="1" style="stop-color:#a91d22;stop-opacity:1"/></radialGradient></defs><path style="stroke:none;fill-rule:nonzero;fill:url(#a)" d="m27.117 10.188-4.414 1.43-3.844 1.679-1.074.277c-.277.258-.562.52-.87.785-.345.29-.661.555-.903.746-.27.211-.672.61-.875.86-.305.375-.543.777-.649 1.082-.183.555-.093 1.117.262 1.637.453.66 1.36 1.336 2.414 1.793.535.234 1.441.535 2.121.703 1.133.285 3.324.593 4.527.64.243.008.57.008.586 0 .028-.02.211-.37.43-.812.742-1.496 1.274-2.899 1.567-4.098.171-.726.308-1.695.398-2.844.023-.32.035-1.39.016-1.757a12.67 12.67 0 0 0-.168-1.547.55.55 0 0 1-.012-.137c.016-.008.055-.023.598-.18Zm-1.008.585c.04 0 .149 1.016.176 1.657.004.136 0 .222-.004.222-.027 0-.566-.312-.949-.55a24.803 24.803 0 0 1-1.066-.704c-.036-.023-.032-.027.242-.117a47.29 47.29 0 0 1 1.601-.508Zm-2.25.735c.032 0 .106.043.29.156.687.426 1.624.941 2.023 1.113.125.051.137.032-.145.223-.609.41-1.367.813-2.293 1.219-.164.074-.3.129-.304.129a.686.686 0 0 1 .039-.18c.222-.824.351-1.656.36-2.324 0-.328 0-.328.03-.34-.007.004-.004.004 0 .004Zm-.464.176c.02.02.007.757-.02.96-.059.481-.152.93-.305 1.438-.039.121-.07.223-.078.23-.015.016-.472-.425-.62-.597a4.268 4.268 0 0 1-.614-.887c-.078-.148-.2-.437-.188-.45.051-.034 1.813-.71 1.825-.694Zm-2.184.847c.004 0 .008 0 .012.004a.526.526 0 0 1 .05.117c.106.29.348.711.555.985.227.297.524.613.77.82.082.066.152.129.164.14.02.02.027.016-.52.22-.629.238-1.316.476-2.105.726-.188.062-.375.121-.563.184-.031.011-.02-.008.067-.141.39-.606.984-1.793 1.316-2.633.059-.144.113-.289.125-.32.012-.047.031-.067.074-.086a.318.318 0 0 1 .055-.016Zm-.668.274c.012.008-.16.363-.324.683-.324.625-.68 1.242-1.153 1.989-.082.128-.156.246-.168.261-.015.02-.023.016-.078-.086a2.92 2.92 0 0 1-.254-.77 2.982 2.982 0 0 1 .016-.984c.043-.203.04-.199.14-.25.426-.214 1.81-.855 1.821-.843Zm5.762.234v.137c0 .738-.082 1.746-.2 2.484-.02.13-.035.235-.039.238l-.21-.058a8.66 8.66 0 0 1-1.536-.652c-.324-.176-.793-.461-.78-.477.003 0 .144-.074.308-.16.652-.336 1.28-.7 1.824-1.063.203-.133.512-.351.578-.41Zm-8.282.977c.016 0 .012.027-.007.144a4.121 4.121 0 0 0-.04.356c-.027.48.055.836.294 1.328.066.133.12.246.117.25-.024.02-2.23.66-2.926.847-.207.059-.387.106-.402.11-.024.008-.028.004-.016-.051.078-.488.45-1.121.973-1.656a4.19 4.19 0 0 1 1.097-.832 24 24 0 0 1 .903-.492c0-.004.004-.004.007-.004Zm5.207.921c.004-.003.086.04.184.094.711.41 1.707.793 2.555.985l.078.02-.106.058c-.445.242-1.906.843-3.398 1.398-.215.078-.43.156-.469.172-.039.02-.078.027-.078.023l.137-.257c.418-.774.84-1.715 1.05-2.371.028-.063.047-.118.047-.121Zm-.527.172c0 .004-.023.07-.058.153-.29.695-.672 1.457-1.16 2.308a6.348 6.348 0 0 1-.231.395s-.102-.063-.223-.133c-.707-.43-1.336-.957-1.746-1.473l-.058-.07.304-.082a22.34 22.34 0 0 0 2.93-1.004c.129-.05.238-.094.242-.094ZM26 16.25s.004 0 0 0c.004.074-.168.754-.309 1.246a34.33 34.33 0 0 1-.554 1.77s-.024-.004-.043-.012a14.055 14.055 0 0 1-2.715-.754 9.461 9.461 0 0 1-.586-.258c-.008-.008.195-.101.45-.21 1.515-.657 3.093-1.403 3.632-1.723A.458.458 0 0 1 26 16.25Zm-7.617.258c.008.004-.414.61-1.012 1.433-.207.286-.445.625-.535.75-.09.125-.227.325-.305.442l-.14.215-.149-.125a5.24 5.24 0 0 1-.62-.63c-.29-.35-.481-.726-.56-1.066-.035-.16-.035-.238-.003-.246.05-.015.941-.222 1.777-.414a126.915 126.915 0 0 0 1.547-.36Zm.43.16.105.121c.48.531.973.922 1.566 1.266a.966.966 0 0 1 .18.117 214.727 214.727 0 0 1-3.98 1.39l-.067-.042-.058-.043.097-.141c.313-.45.707-.941 1.567-1.965Zm2.664 1.887c.003-.004.148.05.328.117.437.16.78.262 1.242.379.566.14 1.387.281 1.871.32.074.008.113.012.102.024-.024.011-.516.175-.875.285-.575.18-2.329.691-3.758 1.097-.262.078-.489.141-.504.145-.031.004-.145-.024-.145-.04 0-.003.082-.109.18-.218.48-.57.957-1.203 1.355-1.805.11-.164.204-.3.204-.304Zm-.59.015c.004.004-.23.383-.645 1.028-.18.273-.375.586-.445.695-.067.105-.168.27-.223.363l-.097.168-.051-.012a29.437 29.437 0 0 1-1.188-.417 8.846 8.846 0 0 1-.777-.352c-.27-.145-.602-.355-.574-.363.004 0 .46-.125 1.011-.274a76.793 76.793 0 0 0 2.805-.785c.098-.031.184-.055.184-.05Zm4.156.965h.004c.015.035-.527 1.52-.723 1.988-.043.106-.058.133-.082.13-.058 0-.844-.11-1.32-.18a62.9 62.9 0 0 1-2.578-.446l-.078-.02.496-.109c1.066-.238 1.582-.367 2.101-.527.66-.2 1.309-.445 1.969-.75.102-.047.191-.082.211-.086Zm0 0"/><path style="stroke:none;fill-rule:nonzero;fill:url(#b)" d="M22.563 0c-.07-.008-1.258.414-2.02.719-1.035.418-1.836.816-2.328 1.156-.184.129-.414.36-.453.45a.32.32 0 0 0-.02.109l.45.421 1.062.336 2.535.45 2.898.492.032-.246c-.012 0-.02-.004-.028-.004l-.382-.059-.075-.136a25.493 25.493 0 0 1-1.082-2.114c-.199-.449-.382-.96-.488-1.332-.055-.226-.062-.238-.102-.242Zm-.051.168h.004c0 .004.015.098.027.207.059.46.16.906.324 1.39.125.364.125.344-.02.301-.34-.093-1.867-.355-2.972-.507-.176-.024-.324-.047-.324-.047-.016-.016.797-.434 1.152-.602.461-.207 1.715-.726 1.809-.742Zm-3.219 1.48.129.043c.707.239 2.488.575 3.469.657.109.007.203.02.207.02.004 0-.09.05-.211.109-.473.234-.992.52-1.356.742a1.31 1.31 0 0 1-.215.117c-.015 0-.086-.012-.156-.023l-.137-.02-.332-.324c-.586-.563-1.046-1-1.226-1.164Zm-.133.102.469.582c.258.32.52.637.574.703.059.07.106.125.102.13-.016.01-.68-.118-1.035-.196a11.61 11.61 0 0 1-.739-.192l-.183-.062v-.047c.004-.219.289-.55.77-.887Zm4 .793c.012 0 .027.031.07.121.114.246.465.914.551 1.043.028.043.074.047-.394-.031-1.133-.18-1.496-.239-1.496-.246 0-.004.03-.028.074-.051a6.353 6.353 0 0 0 1.02-.695c.078-.063.148-.122.16-.133.003-.008.011-.012.015-.008Zm0 0"/><path style="stroke:none;fill-rule:nonzero;fill:url(#c)" d="M17.785 2.277s-.07.114 0 .285c.043.106.168.235.313.368 0 0 1.484 1.433 1.664 1.64.824.938 1.18 1.864 1.215 3.137.02.82-.137 1.54-.528 2.375-.695 1.5-2.16 3.156-4.422 4.992l.332-.11c.211-.155.504-.323 1.184-.694 1.574-.852 3.344-1.637 5.512-2.442 3.125-1.164 8.261-2.523 11.187-2.969l.305-.043-.047-.074a9.262 9.262 0 0 0-.672-.933c-.64-.79-1.418-1.426-2.371-1.954-1.309-.722-3-1.289-5.145-1.707a52 52 0 0 0-2.011-.343c-1.531-.235-2.52-.395-3.606-.578a39.84 39.84 0 0 1-1.363-.25 9.024 9.024 0 0 1-.883-.235c-.242-.094-.59-.183-.664-.465Zm.863.825c.004-.004.055.015.125.039.13.043.293.093.485.148.148.04.293.078.441.113.2.051.367.098.371.098.024.023.36 1.09.473 1.5.043.152.078.285.074.285a.568.568 0 0 1-.082-.129c-.39-.68-1.008-1.37-1.723-1.926a1.386 1.386 0 0 1-.164-.128Zm1.641.449c.02 0 .094.011.184.031.566.125 1.586.316 2.234.426.11.015.2.035.2.043 0 .008-.044.031-.09.054-.114.06-.555.32-.704.418a6.542 6.542 0 0 0-1.125.922s-.02-.054-.035-.125c-.121-.46-.371-1.14-.598-1.62a.877.877 0 0 1-.066-.153v.004Zm2.895.547c.02.007.05.117.117.367a5.16 5.16 0 0 1 .16 1.512c-.004.14-.012.27-.02.285l-.007.031-.176-.055a54.991 54.991 0 0 0-1.434-.422 7.055 7.055 0 0 1-.515-.148c0-.023.414-.43.59-.586.34-.293 1.253-.996 1.285-.984Zm.23.03c.008-.007 1.379.227 2.004.345.465.09 1.14.23 1.18.246.02.008-.051.047-.274.144-.883.395-1.535.746-2.187 1.176-.172.113-.313.207-.317.207-.004 0-.008-.098-.008-.215 0-.625-.125-1.261-.359-1.797a.395.395 0 0 1-.039-.105Zm3.547.696c.012.008-.031.278-.074.438-.121.492-.442 1.222-.84 1.906-.07.125-.133.223-.14.227a1.285 1.285 0 0 1-.2-.106 10.758 10.758 0 0 0-1.309-.637c-.132-.054-.25-.101-.253-.105-.024-.024 1.05-.727 1.617-1.063.453-.27 1.187-.671 1.199-.66Zm.254.04c.031 0 .637.163.953.257.785.23 1.687.559 2.273.824l.247.11-.172.039a24.668 24.668 0 0 0-3.848 1.18c-.098.038-.184.07-.191.07-.008 0 .027-.074.07-.168.36-.75.59-1.531.644-2.2.004-.062.012-.113.024-.113Zm-6.05 1.374c.01-.011.476.098.726.168.379.106 1.187.375 1.187.395 0 .004-.09.078-.195.172-.438.359-.86.738-1.363 1.222-.153.14-.278.258-.286.258-.004 0-.007-.023-.004-.047.075-.554.06-1.27-.046-1.992a5.152 5.152 0 0 1-.02-.176Zm9.753.008c.008.008-.215.352-.355.547-.2.285-.493.66-1.157 1.488-.351.434-.746.926-.875 1.094-.133.164-.246.3-.246.3-.004 0-.047-.058-.094-.128a6.854 6.854 0 0 0-1.355-1.48 3.342 3.342 0 0 0-.246-.196.403.403 0 0 1-.067-.059c0-.007.567-.25 1-.421a34.144 34.144 0 0 1 2.551-.903c.406-.125.836-.246.844-.242Zm.258.066c.012 0 .094.04.187.094.813.461 1.606 1.051 2.235 1.66.175.172.613.621.609.621 0 0-.156.016-.336.028-1.406.105-3.203.402-4.934.812-.117.028-.218.051-.226.051-.008 0 .125-.129.285-.285 1.016-.969 1.48-1.578 2.027-2.668.079-.164.145-.3.153-.313-.004 0-.004 0 0 0Zm-7.438.754c.047.012.48.211.809.375.3.149.75.387.773.407.004.004-.156.086-.351.18-.63.312-1.164.605-1.727.94-.16.098-.293.177-.297.177-.015 0-.011-.012.078-.176.301-.54.543-1.188.68-1.82.012-.047.027-.083.035-.083Zm-.433.079c.011.011-.102.418-.172.64a7.83 7.83 0 0 1-.594 1.34c-.05.094-.133.227-.176.305l-.082.133-.187-.18a2.562 2.562 0 0 0-.621-.453 1.45 1.45 0 0 1-.16-.09c0-.027.57-.54 1.007-.91.313-.27.977-.793.985-.785Zm2.656 1.082.164.105c.371.242.813.563 1.148.844.192.156.559.48.633.562l.04.043-.27.074c-1.528.418-2.711.793-4.09 1.297a6.37 6.37 0 0 1-.293.102c-.02 0-.04.016.305-.297.882-.805 1.664-1.691 2.246-2.55Zm-.7.171c.009.008-.448.645-.722 1.004-.328.43-.91 1.149-1.309 1.621a8.412 8.412 0 0 1-.32.36c-.008.004-.012-.047-.012-.125 0-.399-.105-.824-.285-1.188-.074-.152-.09-.187-.074-.203.066-.058 1.035-.605 1.652-.933.414-.22 1.059-.543 1.07-.536Zm-4.218 1.024a3.762 3.762 0 0 1 .746.469c.008.007-.078.078-.191.16-.32.222-.801.586-1.078.804-.297.235-.305.239-.274.192.223-.336.332-.524.45-.766.1-.215.206-.469.28-.691a.47.47 0 0 1 .067-.168Zm1.125.875c.016-.004.035.023.125.156.191.281.34.656.375.961l.008.066-.457.176c-.82.313-1.574.625-2.086.856-.14.066-.395.183-.555.265-.164.082-.3.145-.3.141 0-.004.105-.078.23-.172 1-.715 1.863-1.504 2.512-2.289.07-.082.132-.16.14-.16Zm-.52.125c.016.012-.367.437-.625.7a11.103 11.103 0 0 1-2.074 1.655c-.101.063-.191.118-.199.125-.023.012.004-.02.352-.394a9.15 9.15 0 0 0 .578-.676 1.09 1.09 0 0 1 .336-.316c.488-.348 1.62-1.11 1.632-1.094Zm0 0"/><path style="stroke:none;fill-rule:nonzero;fill:#231f1f;fill-opacity:1" d="M7.191 24.102c-.058 0-.12.003-.183.003-1.242.067-2.082.61-2.574 1.668-.418.957-.372 2.207.007 3.168.438.942 1.149 1.438 2.336 1.625.25.043.418.176.907.739L8.28 32h1.086l-.722-.719c-.399-.394-.72-.738-.72-.77 0-.03.153-.097.337-.152.61-.183 1.113-.648 1.468-1.363.286-.57.329-.75.368-1.46.109-2.126-1.024-3.45-2.907-3.434Zm.954 5.55c-.528.25-1.297.301-1.797.121-.516-.187-1.016-.722-1.243-1.324-.25-.656-.214-1.87.07-2.418.462-.87 1.071-1.273 1.962-1.273 1.32 0 2.07.8 2.168 2.305.078 1.253-.348 2.199-1.16 2.585Zm18.75-3.738c-.454 0-.805.184-1.04.543l-.183.281V26h-.79v4.438h.79V29.02c0-1.297.015-1.45.2-1.805.253-.485.687-.73 1.105-.613l.28.082v-.77Zm-4.63-.043c-.152 0-.316.024-.48.059-1.055.273-1.648 1.27-1.613 2.297 0 .863.168 1.293.59 1.742.86.699 1.636.754 2.683.379.18-.075.375-.16.375-.16v-.7l-.375.192c-.847.367-1.488.367-2-.063-.324-.332-.468-.726-.535-1.176h3.176v-.597c0-1.219-.742-1.992-1.82-1.973Zm-1.285 1.945s.118-.757.555-1.058c.207-.145.45-.215.684-.215.234 0 .472.074.664.223.402.3.469 1.047.469 1.047H20.98ZM1.984 27.02C1.13 26.508.75 26.137.797 25.7c.133-1.204 1.637-1.036 2.469-.583l.007-.808s-.46-.2-1.12-.207c-1.012-.016-1.669.312-1.973.98-.453.988-.055 1.73 1.39 2.563.809.464 1.164.87 1.164 1.312 0 .91-1.109 1.23-2.254.656-.238-.113-.437-.21-.445-.21-.043.257-.02.874-.02.874s.352.149.88.25c1.308.258 2.5-.351 2.613-1.34.097-.925-.242-1.41-1.524-2.171Zm31.887-1.157c-.156 0-.32.02-.488.055-1.055.273-1.649 1.273-1.606 2.3 0 .86.168 1.286.586 1.735.86.7 1.637.758 2.692.383l.375-.164v-.7l-.375.196c-.852.363-1.489.363-2-.066-.328-.329-.473-.72-.54-1.176h3.172v-.598c0-1.215-.742-1.984-1.82-1.965Zm-1.285 1.946s.117-.762.55-1.067c.212-.144.45-.215.688-.215.235 0 .469.075.664.223.399.305.465 1.05.465 1.05h-2.367Zm-14.445-.782c-.856-.511-1.23-.879-1.188-1.316.133-1.207 1.637-1.04 2.473-.582l.004-.813s-.461-.195-1.121-.207c-1.012-.011-1.668.317-1.973.985-.45.988-.047 1.73 1.39 2.562.81.465 1.169.864 1.169 1.305 0 .914-1.11 1.234-2.258.66a7.918 7.918 0 0 0-.446-.215c-.043.262-.02.88-.02.88s.349.14.876.245c1.308.262 2.5-.347 2.613-1.336.098-.922-.238-1.406-1.52-2.168ZM38.5 25.902c-.457 0-.809.184-1.04.543l-.183.285v-.738h-.789v4.434h.79v-1.418c0-1.297.015-1.45.199-1.805.25-.484.683-.726 1.105-.61l.281.079v-.77Zm-26.625 1.102v-2.828h-.793v6.258h3.34v-.739h-2.547Zm18.371.879-.652 1.687-.633-1.695-.637-1.879h-.816a137.94 137.94 0 0 0 1.68 4.438c.25.007.5 0 .753 0l.883-2.196.903-2.242h-.778s-.344.89-.703 1.887Zm-16.539-5.41a.439.439 0 0 0 .32-.13.425.425 0 0 0 .133-.312.421.421 0 0 0-.133-.316.45.45 0 0 0-.316-.121.448.448 0 0 0-.324.129.424.424 0 0 0-.125.312.4.4 0 0 0 .125.313.436.436 0 0 0 .32.12Zm-.285-.723a.398.398 0 0 1 .289-.11.386.386 0 0 1 .398.391c0 .11-.039.207-.117.282a.374.374 0 0 1-.281.113.368.368 0 0 1-.281-.113.377.377 0 0 1-.117-.282c0-.113.035-.203.109-.281Zm.191.32h.051c.04 0 .074.035.102.102l.062.137h.098l-.074-.153c-.032-.058-.063-.097-.098-.105a.227.227 0 0 0 .105-.055c.028-.027.036-.062.036-.101a.136.136 0 0 0-.047-.11.266.266 0 0 0-.164-.043h-.164v.567h.082v-.239Zm0-.261h.07c.055 0 .09.007.11.023.02.016.023.035.023.07 0 .067-.039.098-.117.098h-.086Zm-13.125.21c0-.195-.004-.343-.008-.43h.004c.02.102.047.18.067.227l.761 1.688h.13l.761-1.7c.02-.046.043-.116.067-.214h.007a4.85 4.85 0 0 0-.023.433v1.489h.262v-2.215h-.329l-.699 1.539a7.777 7.777 0 0 0-.11.273h-.007a1.78 1.78 0 0 0-.101-.261l-.688-1.555H.234v2.21h.25v-1.48Zm2.602.004h.223v1.38H3.09Zm.113-.503a.159.159 0 0 0 .117-.047.162.162 0 0 0 .051-.118.14.14 0 0 0-.05-.113.168.168 0 0 0-.122-.047.165.165 0 0 0-.117.047.154.154 0 0 0-.05.113c0 .051.015.086.05.118a.172.172 0 0 0 .117.047Zm1.719 1.914v-.243a.67.67 0 0 1-.395.137.518.518 0 0 1-.394-.164.624.624 0 0 1-.149-.437c0-.192.051-.344.16-.457a.508.508 0 0 1 .399-.168.66.66 0 0 1 .379.12v-.257a.81.81 0 0 0-.371-.082c-.254 0-.453.082-.602.238-.148.156-.226.371-.226.629 0 .227.066.418.207.566.14.153.324.227.55.227a.91.91 0 0 0 .442-.11Zm.644-.735c0-.183.04-.328.118-.43a.31.31 0 0 1 .261-.136c.086 0 .149.015.192.05v-.265a.4.4 0 0 0-.153-.02.41.41 0 0 0-.246.086.556.556 0 0 0-.172.27H5.56v-.324h-.254v1.578h.254v-.809Zm1.47.84c.237 0 .433-.074.577-.227.14-.152.215-.355.215-.609 0-.258-.066-.453-.2-.601-.132-.149-.32-.22-.558-.22-.242 0-.433.071-.578.208-.152.152-.234.367-.234.64 0 .239.066.434.203.582.144.153.332.227.574.227Zm-.364-1.285a.503.503 0 0 1 .383-.152c.164 0 .285.05.379.152.09.105.136.258.136.46 0 .192-.039.345-.129.446-.086.106-.214.16-.382.16a.498.498 0 0 1-.387-.16c-.098-.105-.145-.254-.145-.445a.599.599 0 0 1 .145-.461Zm2.273 1.148a.415.415 0 0 0 .035-.613.938.938 0 0 0-.3-.172.803.803 0 0 1-.239-.133.203.203 0 0 1-.066-.16c0-.066.023-.117.074-.156a.312.312 0 0 1 .207-.063c.137 0 .254.036.364.114v-.254a.754.754 0 0 0-.344-.074c-.164 0-.301.043-.403.129-.109.085-.16.199-.16.332a.4.4 0 0 0 .102.28.779.779 0 0 0 .285.177c.129.058.215.109.262.148.047.04.066.09.066.152 0 .145-.101.223-.3.223a.631.631 0 0 1-.415-.152v.273c.11.067.246.098.39.098.192-.012.34-.055.442-.149Zm1.22-1.52c-.24 0-.435.071-.58.208-.151.152-.233.367-.233.64 0 .239.066.434.203.582.144.153.336.227.574.227a.765.765 0 0 0 .578-.227c.145-.152.215-.355.215-.609 0-.258-.067-.457-.2-.601-.136-.149-.32-.22-.554-.22Zm.495.833c0 .191-.039.344-.125.445-.09.106-.215.16-.387.16a.498.498 0 0 1-.386-.16c-.098-.105-.145-.254-.145-.445 0-.203.051-.36.153-.465a.512.512 0 0 1 .386-.152.48.48 0 0 1 .375.152c.082.11.13.262.13.465Zm.692.789h.257v-1.367h.371v-.211h-.37v-.246c0-.223.085-.332.265-.332.059 0 .121.015.168.039v-.227a.492.492 0 0 0-.184-.027.475.475 0 0 0-.343.129.521.521 0 0 0-.164.41v.258h-.27v.21h.27Zm1.05-.43c0 .309.137.465.418.465.102 0 .18-.016.242-.05v-.22a.272.272 0 0 1-.164.051c-.09 0-.148-.02-.183-.066-.04-.043-.059-.121-.059-.227v-.89h.406v-.215h-.406v-.465c-.09.031-.176.055-.254.082v.383h-.277v.215h.277Zm27.457 2.91a.433.433 0 0 0-.316-.12.418.418 0 0 0-.32.128.407.407 0 0 0-.13.313c0 .125.04.23.126.312.09.082.195.121.324.121s.234-.039.324-.125a.44.44 0 0 0-.008-.629Zm-.039.598a.386.386 0 0 1-.28.11.38.38 0 0 1-.282-.11.38.38 0 0 1-.117-.285c0-.11.035-.2.109-.277a.392.392 0 0 1 .29-.11.39.39 0 0 1 .398.387.36.36 0 0 1-.118.285Zm-.23-.258a.224.224 0 0 0 .105-.054c.028-.028.035-.063.035-.102 0-.047-.011-.082-.042-.11a.274.274 0 0 0-.165-.042h-.164v.566h.082v-.238h.051c.035 0 .07.035.102.101l.062.137h.098l-.078-.152c-.028-.067-.055-.098-.086-.106Zm-.059-.05h-.086v-.192h.07c.051 0 .09.008.11.023.02.016.023.036.023.07 0 .067-.039.098-.117.098Zm-14.273-4.415h.07v-.566h.192v-.074h-.45v.074h.188Zm.433-.425c0-.055 0-.102-.003-.13.003.032.015.051.019.067l.223.488h.035l.219-.492c.007-.015.011-.035.02-.062-.005.05-.005.093-.005.125v.43h.078v-.641h-.093l-.2.441c-.004.016-.02.047-.03.082h-.005a.34.34 0 0 0-.031-.074l-.2-.45h-.1v.641h.07v-.425Zm0 0"/></svg>