<svg xmlns="http://www.w3.org/2000/svg" width="40" height="40" viewBox="0 0 40 39"><path style="stroke:none;fill-rule:nonzero;fill:#00546b;fill-opacity:1" d="M36.82 30.055c-2.175-.051-3.86.164-5.273.758-.41.16-1.063.16-1.117.671.218.215.246.567.437.86.324.539.895 1.265 1.414 1.644.57.43 1.14.86 1.739 1.239 1.062.644 2.257 1.023 3.289 1.668.597.378 1.195.863 1.793 1.265.3.215.492.567.87.703v-.082c-.19-.242-.242-.593-.433-.863-.273-.27-.543-.512-.816-.781a12.877 12.877 0 0 0-2.828-2.719c-.868-.59-2.774-1.398-3.125-2.395l-.055-.054c.597-.055 1.305-.27 1.875-.43.926-.242 1.77-.191 2.719-.434.437-.105.87-.242 1.304-.375v-.242c-.488-.484-.84-1.133-1.36-1.59-1.386-1.183-2.905-2.343-4.483-3.312-.844-.54-1.93-.887-2.829-1.344-.324-.164-.867-.242-1.058-.512-.488-.593-.762-1.375-1.117-2.074-.786-1.48-1.547-3.125-2.227-4.683-.488-1.051-.789-2.102-1.387-3.07-2.8-4.579-5.843-7.352-10.52-10.071-1.007-.566-2.202-.809-3.48-1.105-.68-.028-1.359-.079-2.039-.106-.433-.191-.87-.703-1.25-.945C5.313.707 1.316-1.391.176 1.383c-.735 1.75 1.086 3.472 1.71 4.36.466.62 1.063 1.32 1.387 2.019.192.457.247.941.438 1.426.434 1.187.84 2.507 1.41 3.609.3.566.629 1.16 1.008 1.668.219.297.598.433.68.918-.38.539-.407 1.347-.625 2.02-.98 3.042-.598 6.812.789 9.046.433.672 1.465 2.153 2.851 1.59 1.227-.488.953-2.02 1.305-3.367.082-.324.027-.54.191-.754v.055c.383.754.762 1.48 1.114 2.234.843 1.32 2.312 2.691 3.535 3.61.652.484 1.168 1.316 1.984 1.613v-.082h-.055c-.16-.243-.406-.348-.625-.535-.488-.489-1.03-1.079-1.414-1.618-1.14-1.508-2.144-3.175-3.043-4.902-.433-.832-.816-1.75-1.168-2.582-.164-.324-.164-.809-.437-.969-.406.59-1.004 1.102-1.305 1.828-.515 1.16-.57 2.586-.761 4.067-.106.027-.055 0-.106.054-.871-.214-1.172-1.105-1.496-1.859-.816-1.91-.953-4.98-.246-7.187.191-.567 1.008-2.344.68-2.883-.165-.512-.707-.805-1.004-1.211a10.748 10.748 0 0 1-.98-1.723c-.653-1.508-.977-3.176-1.684-4.683-.329-.704-.899-1.43-1.36-2.075-.515-.726-1.09-1.238-1.496-2.101-.137-.297-.328-.781-.11-1.102.055-.219.165-.297.384-.351.351-.297 1.359.082 1.71.242 1.004.402 1.848.781 2.692 1.347.379.27.789.782 1.277.915h.57c.872.187 1.848.054 2.665.296 1.441.457 2.746 1.13 3.914 1.856a23.998 23.998 0 0 1 8.484 9.21c.324.618.461 1.184.758 1.833.574 1.316 1.281 2.664 1.851 3.957.57 1.265 1.114 2.558 1.93 3.61.406.562 2.04.859 2.774 1.155.543.243 1.386.458 1.875.754.921.567 1.847 1.211 2.718 1.832.434.32 1.793.997 1.875 1.532Zm0 0"/><path style="stroke:none;fill-rule:nonzero;fill:#00546b;fill-opacity:1" d="M9.09 6.66c-.461 0-.785.05-1.113.133v.055h.054c.219.43.598.726.871 1.101.215.434.407.864.625 1.293l.055-.055c.379-.265.57-.699.57-1.343-.164-.188-.191-.38-.328-.567-.16-.27-.515-.402-.734-.617Zm0 0"/></svg>