<svg xmlns="http://www.w3.org/2000/svg" width="40" height="40"><path style="stroke:none;fill-rule:nonzero;fill:#e0234e;fill-opacity:1" d="M23.55.078c-.288 0-.554.063-.804.145.527.351.817.816.961 1.343.012.07.031.125.043.196.008.062.02.125.02.187.043.906-.239 1.02-.434 1.559-.3.691-.219 1.437.144 2.035.032.07.07.156.125.227-.394-2.614 1.786-3.004 2.188-3.82.031-.716-.559-1.188-1.023-1.52a2.26 2.26 0 0 0-1.22-.352Zm3.286.59c-.04.238-.008.176-.02.297-.011.086-.011.187-.02.27a2.24 2.24 0 0 1-.073.25 2.02 2.02 0 0 1-.082.245c-.04.083-.07.157-.114.239-.03.043-.05.082-.082.125-.02.031-.043.062-.062.09-.051.074-.102.148-.156.207-.063.062-.114.136-.184.187v.012c-.063.05-.125.113-.195.164-.22.164-.465.289-.696.445-.07.051-.144.09-.207.153a2.01 2.01 0 0 0-.195.168c-.07.058-.125.12-.184.195a1.37 1.37 0 0 0-.156.207c-.05.07-.105.144-.144.215-.043.082-.075.156-.114.238-.03.082-.062.156-.082.238a2.988 2.988 0 0 0-.074.258c-.008.043-.008.094-.02.133-.011.043-.011.086-.019.125 0 .082-.012.176-.012.258 0 .062 0 .125.012.187 0 .082.008.164.031.258.008.082.028.164.051.246.031.086.05.168.082.25.02.05.05.102.07.145l-2.375-.918a21.636 21.636 0 0 0-1.199-.313l-.648-.152a19.119 19.119 0 0 0-1.88-.281c-.023 0-.03-.008-.054-.008a18.231 18.231 0 0 0-3.203-.043c-.629.043-1.258.125-1.887.226a6.08 6.08 0 0 0-.465.082c-.32.063-.632.137-.93.207-.155.043-.312.082-.464.125-.156.063-.3.133-.445.196-.114.05-.227.105-.34.156-.024.008-.043.008-.055.02-.101.05-.195.093-.289.144a.411.411 0 0 0-.07.031c-.114.051-.227.114-.32.164-.075.032-.145.075-.208.106-.03.02-.074.039-.093.05-.094.051-.184.102-.27.157-.09.05-.176.101-.246.152-.074.055-.145.094-.207.145-.012.011-.02.011-.031.023-.063.04-.133.09-.196.145 0 0-.011.008-.02.02-.054.042-.105.081-.155.124-.02.008-.043.032-.063.04-.05.042-.101.093-.156.136-.008.02-.031.031-.04.04-.062.062-.124.112-.187.175-.011 0-.011.012-.02.023-.062.051-.124.114-.187.172-.008.012-.008.024-.02.024-.05.05-.1.101-.155.164-.02.02-.051.043-.07.062-.052.063-.114.125-.177.188-.011.02-.03.027-.043.05-.082.082-.152.165-.238.247a7.177 7.177 0 0 1-1.133.992c-.207.144-.406.27-.62.394a6.679 6.679 0 0 1-.653.309 6.238 6.238 0 0 1-.672.246c-.434.094-.875.27-1.258.3-.082 0-.176.02-.258.032-.093.02-.175.043-.257.063-.086.03-.168.062-.25.093a2.3 2.3 0 0 0-.246.114c-.075.05-.157.093-.231.144-.07.05-.145.113-.203.176-.074.05-.149.12-.207.183-.063.075-.125.137-.176.207-.055.082-.113.157-.156.239-.05.074-.102.156-.145.238-.043.094-.082.176-.113.27-.031.082-.062.175-.094.265-.02.086-.039.168-.05.25 0 .012-.012.02-.012.031-.02.094-.02.215-.031.278-.008.074-.02.136-.02.207 0 .043 0 .094.012.133a1 1 0 0 0 .039.199c.023.062.043.12.074.183v.012c.031.063.07.125.113.188.04.058.082.12.133.183.05.051.113.114.176.164.062.063.125.117.195.168.25.215.313.29.633.453.05.032.102.051.164.082.012 0 .02.012.031.012 0 .02 0 .031.012.05.008.083.031.165.05.25.02.09.052.177.083.247.031.063.05.125.082.188.012.02.02.039.031.05.043.082.082.157.125.227.05.074.102.144.152.219l.176.195c.063.062.125.113.2.176 0 0 .007.011.019.011.063.051.125.102.188.145.07.05.144.09.226.133.07.039.152.082.238.113.059.031.133.05.203.074.012.008.024.008.043.02.043.008.094.02.133.031-.031.559-.039 1.082.043 1.27.094.207.547-.422 1.004-1.149-.062.715-.105 1.55 0 1.8.113.259.73-.55 1.27-1.437 7.324-1.695 14.007 3.368 14.71 10.516-.136-1.113-1.511-1.734-2.14-1.578-.309.762-.836 1.742-1.684 2.352A6.547 6.547 0 0 0 16.633 27a6.737 6.737 0 0 1-1.281 2.602c-.98.07-1.965-.403-2.48-1.118-.044-.03-.052-.09-.083-.132-.031-.075-.062-.145-.082-.22a.893.893 0 0 1-.062-.214c-.012-.074-.012-.145-.012-.227v-.156c.012-.07.031-.144.05-.215.024-.074.044-.144.075-.218.043-.075.07-.145.125-.22.176-.491.176-.898-.145-1.132a1.072 1.072 0 0 0-.199-.105c-.039-.012-.09-.032-.133-.04-.031-.011-.05-.023-.082-.03a1.493 1.493 0 0 0-.219-.055.816.816 0 0 0-.214-.032c-.075-.008-.157-.02-.227-.02-.055 0-.105.012-.156.012a.707.707 0 0 0-.227.032c-.074.008-.144.02-.219.039-.07.023-.144.043-.214.074-.075.031-.137.063-.207.094-.063.031-.125.07-.196.101-2.41 1.57-.972 5.246.668 6.313-.617.113-1.246.246-1.422.383-.011.007-.023.02-.023.02.445.269.91.495 1.395.69.664.22 1.363.415 1.675.497v.011a9.835 9.835 0 0 0 2.602.184c4.578-.32 8.328-3.8 9.008-8.387.02.094.043.176.062.27.031.183.07.383.094.578v.012c.02.09.031.183.039.265v.043c.012.094.023.184.023.27.008.113.02.226.02.34v.164c0 .05.012.113.012.168 0 .058-.012.12-.012.183v.145c0 .074-.012.136-.012.207 0 .043 0 .082-.008.133 0 .074-.011.144-.011.23-.012.031-.012.059-.012.09-.008.086-.02.156-.031.238 0 .031 0 .063-.008.094-.012.102-.031.195-.043.3V29.282c-.02.094-.04.196-.063.29v.03c-.02.094-.039.188-.062.278 0 .012-.008.031-.008.043-.023.094-.043.187-.074.277v.031c-.031.106-.063.2-.082.29-.012.011-.012.023-.012.023a9.182 9.182 0 0 1-.09.309c-.043.101-.074.195-.113.3-.043.102-.074.207-.117.297-.04.106-.082.2-.121.301h-.012a3.17 3.17 0 0 1-.133.29c-.012.03-.023.05-.031.073-.012.008-.012.02-.023.032a9.721 9.721 0 0 1-2.903 3.468c-.082.051-.164.114-.246.176-.02.02-.05.031-.074.05-.07.052-.145.106-.227.157l.032.063h.011c.145-.02.29-.043.434-.063h.012c.265-.043.535-.094.804-.144.07-.012.153-.032.227-.051.05-.012.094-.024.144-.031.075-.012.145-.032.22-.043.058-.02.12-.032.183-.051a19.8 19.8 0 0 0 2.996-.992 16.534 16.534 0 0 1-6.414 5.238 17.153 17.153 0 0 0 3.523-.61 16.525 16.525 0 0 0 9.762-7.8 16.518 16.518 0 0 1-2.781 6.644 16.317 16.317 0 0 0 2.757-2.293 16.394 16.394 0 0 0 4.352-8.781c.352 1.633.453 3.316.297 4.977 7.46-10.403.621-21.184-2.238-24.028-.012-.02-.024-.031-.024-.05-.008.011-.008.011-.008.019 0-.008 0-.008-.011-.02 0 .125-.012.25-.02.372-.031.238-.062.464-.105.691-.051.23-.114.457-.176.684a7.098 7.098 0 0 1-.559 1.293 6.155 6.155 0 0 1-.37.585 6.96 6.96 0 0 1-.423.56c-.156.187-.32.35-.484.515-.106.093-.2.175-.3.258-.083.074-.157.136-.24.207a5.447 5.447 0 0 1-.577.402c-.196.125-.403.25-.61.351-.218.106-.433.2-.652.29a6.14 6.14 0 0 1-.672.218 8.795 8.795 0 0 1-.691.156c-.239.04-.473.06-.703.083-.164.007-.328.02-.496.02-.235 0-.473-.02-.7-.044a5.166 5.166 0 0 1-.703-.101 5.12 5.12 0 0 1-.691-.176h-.012c.227-.02.453-.043.684-.082a8.067 8.067 0 0 0 1.363-.371c.227-.082.441-.188.648-.29.22-.105.414-.218.621-.343.196-.133.391-.266.579-.41.187-.145.359-.301.527-.465.176-.156.328-.332.484-.508.157-.188.301-.371.434-.559.02-.03.043-.07.062-.101.102-.168.207-.332.301-.496.113-.207.215-.414.309-.63.094-.218.176-.437.25-.663.07-.215.12-.442.172-.672.043-.234.086-.465.105-.691.02-.239.043-.473.043-.704 0-.164-.012-.328-.023-.496a12.87 12.87 0 0 0-.082-.691 7.745 7.745 0 0 0-.157-.692c-.07-.214-.144-.445-.226-.66a6.293 6.293 0 0 0-.29-.64 10.31 10.31 0 0 0-.35-.61 9.61 9.61 0 0 0-.415-.57 14.656 14.656 0 0 0-.473-.523 5.763 5.763 0 0 0-.27-.262c-.464-.36-.948-.7-1.433-1.012a3.347 3.347 0 0 0-.207-.101c-.343-.22-.664-.332-.984-.434Zm0 0"/></svg>