<svg xmlns="http://www.w3.org/2000/svg" width="40" height="40" viewBox="0 0 40 25"><path style="stroke:none;fill-rule:nonzero;fill:#621ee5;fill-opacity:1" d="M2.031 12.73a1.105 1.105 0 0 0-1.594-.004 1.078 1.078 0 0 0-.242.364 1.182 1.182 0 0 0 0 .86c.059.136.14.26.246.363.207.218.496.34.797.332.301.003.586-.118.797-.332a1.01 1.01 0 0 0 .25-.36c.055-.137.086-.281.086-.43a1.088 1.088 0 0 0-.34-.793Zm13.344-2.57c-.02.711.016 1.422.102 2.125h-.04c-.09-.172-.289-.496-.59-.965L7.579 0H5.371v14.45h1.7V4.003c.015-.66-.012-1.32-.083-1.984h.063c.12.316.277.62.465.906l7.464 11.523h2.09V0h-1.695Zm13.191 2.703h-5.992V7.855h5.246V6.332h-5.246v-4.8h5.63V0h-7.368v14.45h7.723ZM29.867 0v1.531h4.176V14.45h1.695V1.531h4.223V0ZM13.242 18.043a3.199 3.199 0 0 0-1.12.75c-.325.344-.579.75-.747 1.195a3.586 3.586 0 0 0-.219 1.387 3.373 3.373 0 0 0 .86 2.379 2.981 2.981 0 0 0 2.289.91 3.924 3.924 0 0 0 1.847-.387l.008-.738a3.247 3.247 0 0 1-1.742.441 2.31 2.31 0 0 1-.961-.164 2.324 2.324 0 0 1-.8-.554 2.745 2.745 0 0 1-.669-1.942 2.87 2.87 0 0 1 .715-2.047c.238-.257.527-.46.852-.601.32-.137.672-.203 1.023-.192a3.164 3.164 0 0 1 1.594.395v-.793a3.982 3.982 0 0 0-1.594-.281 3.536 3.536 0 0 0-1.336.242Zm7.95 2.266a2.157 2.157 0 0 0-1.665-.66 2.425 2.425 0 0 0-1.777.676c-.23.25-.406.546-.52.866a2.448 2.448 0 0 0-.14 1.004 2.457 2.457 0 0 0 .625 1.77 2.213 2.213 0 0 0 1.7.703c.32.012.64-.05.94-.172.301-.125.567-.312.79-.547.445-.5.675-1.156.644-1.824a2.608 2.608 0 0 0-.598-1.816Zm-.583 3.246a1.395 1.395 0 0 1-1.14.476 1.474 1.474 0 0 1-1.164-.488 1.94 1.94 0 0 1-.43-1.332 2.061 2.061 0 0 1 .43-1.379c.144-.164.324-.293.523-.383.203-.086.422-.125.637-.117a1.416 1.416 0 0 1 1.145.492c.288.399.43.887.398 1.375.031.48-.11.965-.399 1.356Zm3.692-3.559a1.683 1.683 0 0 0-.5.797v-.996h-.797v4.758h.797v-2.426c-.024-.442.09-.879.328-1.254a.976.976 0 0 1 .797-.457.923.923 0 0 1 .578.152v-.785c-.145-.047-.3-.07-.453-.062a1.132 1.132 0 0 0-.75.273Zm5.867 1.965c.039-.606-.145-1.2-.508-1.68a1.838 1.838 0 0 0-.66-.468 1.826 1.826 0 0 0-.793-.133c-.3-.012-.598.05-.875.168-.273.12-.52.3-.719.527a2.602 2.602 0 0 0-.629 1.809c-.039.656.168 1.308.582 1.82.2.219.45.39.723.504.273.113.574.16.871.148a2.786 2.786 0 0 0 1.664-.453v-.715c-.418.34-.941.528-1.484.532a1.477 1.477 0 0 1-1.13-.43 1.754 1.754 0 0 1-.405-1.219h3.37Zm-3.371-.223c.043-.375.21-.73.469-1.004.238-.254.57-.394.918-.39.168-.008.332.02.484.082a1.1 1.1 0 0 1 .395.285c.222.293.335.652.32 1.02Zm0 0"/></svg>