<svg xmlns="http://www.w3.org/2000/svg" width="40" height="40"><path style="stroke:none;fill-rule:nonzero;fill:#000;fill-opacity:1" d="M9.457 14.324h7.527v.598h-6.836v4.48h6.43v.594h-6.43v4.922h6.915v.598H9.457Zm8.203 0h.8l3.544 4.922 3.625-4.922 4.926-6.25-8.094 11.688 4.172 5.754H25.8l-3.797-5.235-3.809 5.235h-.816l4.203-5.754Zm9.27.598v-.598h8.578v.598h-3.953v10.594h-.688V14.922ZM.04 14.324h.862L12.797 32.04l-4.914-6.523L.762 15.172.73 25.516H.04ZM35.438 24.738c.144 0 .25-.11.25-.25a.241.241 0 0 0-.25-.246.24.24 0 0 0-.247.246c0 .14.106.25.246.25Zm.68-.656c0 .414.3.688.737.688.465 0 .75-.282.75-.766v-1.707h-.378v1.707c0 .27-.133.41-.375.41-.215 0-.36-.133-.368-.332Zm1.98-.02c.023.43.386.708.922.708.574 0 .933-.29.933-.75 0-.364-.203-.567-.7-.68l-.269-.067c-.312-.074-.441-.171-.441-.343 0-.22.2-.36.496-.36.281 0 .477.137.512.36h.363c-.02-.407-.379-.692-.871-.692-.527 0-.883.285-.883.715 0 .356.2.567.64.668l.313.074c.32.078.461.188.461.371 0 .215-.222.372-.523.372-.324 0-.551-.149-.582-.375Zm0 0"/></svg>