<svg xmlns="http://www.w3.org/2000/svg" width="40" height="40" viewBox="0 0 40 21"><defs><radialGradient id="a" gradientUnits="userSpaceOnUse" cx=".837" cy="-125.811" fx=".837" fy="-125.811" r="363.057" gradientTransform="matrix(.07234 0 0 .07202 11.948 12.743)"><stop offset="0" style="stop-color:#fff;stop-opacity:1"/><stop offset=".5" style="stop-color:#4c6b97;stop-opacity:1"/><stop offset="1" style="stop-color:#231f20;stop-opacity:1"/></radialGradient></defs><path style="stroke:none;fill-rule:nonzero;fill:url(#a)" d="M40 10.469C40 4.688 31.047 0 20 0S0 4.688 0 10.469s8.953 10.469 20 10.469 20-4.688 20-10.47Zm0 0"/><path style="stroke:none;fill-rule:nonzero;fill:#6181b6;fill-opacity:1" d="M39.219 10.469C39.219 5.117 30.613.777 20 .777 9.387.777.781 5.117.781 10.47.781 15.82 9.387 20.16 20 20.16c10.613 0 19.219-4.34 19.219-9.691Zm0 0"/><path style="stroke:none;fill-rule:nonzero;fill:#fff;fill-opacity:1" d="m23.89 13.61.954-4.883c.218-1.106.031-1.93-.532-2.442-.546-.5-1.484-.746-2.859-.746h-1.656l.469-2.43a.321.321 0 0 0-.063-.261.281.281 0 0 0-.234-.11h-2.282a.32.32 0 0 0-.312.25l-1.016 5.18c-.093-.594-.312-1.09-.687-1.496-.672-.762-1.719-1.149-3.14-1.149H8.14a.32.32 0 0 0-.313.247L5.781 16.285a.327.327 0 0 0 .063.266c.062.078.14.11.234.11h2.297a.32.32 0 0 0 .313-.25l.5-2.536h1.703c.89 0 1.656-.094 2.234-.281.61-.2 1.156-.528 1.64-.977.391-.36.72-.765.97-1.199l-.407 2.102c-.015.09 0 .183.063.261.062.078.14.11.234.11h2.281a.32.32 0 0 0 .313-.25l1.125-5.754h1.562c.672 0 .86.125.922.187.047.047.14.235.031.809l-.906 4.652c-.015.09 0 .184.063.262.062.078.14.11.234.11h2.344c.14-.048.265-.157.297-.298ZM13.329 9.565c-.14.73-.406 1.262-.797 1.555-.39.297-1.031.453-1.875.453H9.641l.734-3.765h1.313c.968 0 1.359.203 1.515.375.203.246.25.73.125 1.382ZM33.64 6.672c-.671-.762-1.718-1.149-3.14-1.149h-4.422a.32.32 0 0 0-.312.247l-2.047 10.5a.327.327 0 0 0 .062.265c.063.078.14.11.235.11h2.297a.32.32 0 0 0 .312-.25l.5-2.536h1.703c.89 0 1.656-.093 2.235-.28.609-.2 1.156-.528 1.64-.977.406-.375.75-.793 1-1.247.25-.449.438-.949.547-1.492.266-1.355.063-2.414-.61-3.191Zm-2.39 2.894c-.14.73-.406 1.262-.797 1.555-.39.297-1.031.453-1.875.453h-1.015l.734-3.765h1.312c.97 0 1.36.203 1.516.375.219.246.266.73.125 1.382Zm0 0"/><path style="stroke:none;fill-rule:nonzero;fill:#000004;fill-opacity:1" d="M11.688 7.496c.874 0 1.453.156 1.75.484.296.329.359.872.203 1.649-.157.809-.47 1.398-.922 1.742-.453.344-1.14.512-2.063.512h-1.39l.859-4.387Zm-5.594 8.836H8.39l.546-2.781h1.97c.874 0 1.577-.094 2.14-.281a4.145 4.145 0 0 0 1.531-.918c.39-.36.703-.747.938-1.168.234-.418.406-.887.5-1.399.25-1.246.062-2.21-.547-2.91-.61-.7-1.578-1.043-2.906-1.043H8.14ZM17.703 3.05h2.281l-.547 2.782h2.032c1.281 0 2.156.219 2.64.672.485.45.625 1.164.438 2.16l-.953 4.887H21.28l.907-4.653c.109-.53.062-.886-.11-1.074-.172-.187-.562-.297-1.14-.297h-1.829l-1.172 6.024h-2.28ZM29.61 7.496c.874 0 1.453.156 1.75.484.296.329.359.872.203 1.649-.157.809-.47 1.398-.922 1.742-.453.344-1.141.512-2.063.512h-1.39l.859-4.387Zm-5.594 8.836h2.297l.546-2.781h1.97c.874 0 1.577-.094 2.14-.281a4.145 4.145 0 0 0 1.531-.918c.39-.36.703-.747.938-1.168.234-.418.406-.887.5-1.399.25-1.246.062-2.21-.547-2.91-.61-.7-1.578-1.043-2.907-1.043h-4.422Zm0 0"/></svg>