<svg xmlns="http://www.w3.org/2000/svg" width="40" height="40" viewBox="0 0 40 41"><path style="stroke:none;fill-rule:nonzero;fill:#000;fill-opacity:1" d="M39.844 24.55c-.239-.722-.867-1.222-1.68-1.343-.383-.059-.82-.035-1.34.074-.906.184-1.578.254-2.066.27 1.847-3.106 3.351-6.645 4.219-9.977 1.398-5.386.652-7.84-.223-8.953C36.44 1.684 33.066.105 28.992.06 26.82.03 24.914.457 23.918.766a18.671 18.671 0 0 0-2.969-.27c-1.957-.031-3.687.39-5.168 1.266a23.611 23.611 0 0 0-3.648-.914C8.563.266 5.688.723 3.582 2.199 1.035 3.99-.145 7.094.07 11.438c.07 1.374.848 5.57 2.067 9.546.703 2.286 1.453 4.184 2.226 5.641 1.098 2.07 2.274 3.285 3.59 3.723.742.246 2.082.418 3.496-.754.18.218.418.43.735.629.402.254.894.46 1.386.582 1.774.441 3.434.332 4.848-.285.012.25.016.488.023.695.008.336.02.664.032.969.082 2.078.226 3.691.644 4.824.024.062.055.156.09.258.207.636.559 1.707 1.453 2.547.926.867 2.047 1.136 3.074 1.136.512 0 1.004-.07 1.434-.16 1.535-.328 3.277-.824 4.539-2.61 1.191-1.687 1.77-4.226 1.875-8.23.012-.113.027-.219.04-.324l.023-.21.28.023.075.007c1.563.07 3.473-.261 4.645-.8.93-.43 3.898-1.989 3.199-4.094"/><path style="stroke:none;fill-rule:nonzero;fill:#336791;fill-opacity:1" d="M37.172 24.96c-4.645.954-4.965-.608-4.965-.608 4.906-7.239 6.957-16.422 5.188-18.672-4.829-6.133-13.188-3.23-13.329-3.157l-.043.008c-.918-.187-1.945-.3-3.101-.32-2.102-.035-3.7.547-4.906 1.46 0 0-14.914-6.105-14.22 7.68.15 2.93 4.231 22.188 9.099 16.372 1.777-2.13 3.496-3.926 3.496-3.926a4.562 4.562 0 0 0 2.949.75l.082-.07c-.024.261-.012.52.035.828-1.254 1.39-.887 1.636-3.395 2.148-2.535.52-1.046 1.445-.074 1.688 1.18.293 3.91.707 5.754-1.86l-.074.293c.492.39.836 2.547.777 4.496-.054 1.953-.093 3.293.293 4.34.387 1.047.774 3.403 4.067 2.7 2.754-.587 4.183-2.106 4.379-4.641.144-1.805.46-1.535.48-3.149l.258-.761c.293-2.446.047-3.23 1.742-2.868l.414.04c1.246.054 2.883-.204 3.84-.645 2.066-.953 3.293-2.543 1.254-2.125"/><path style="stroke:none;fill-rule:nonzero;fill:#fff;fill-opacity:1" d="M16.887 12.66c-.418-.058-.797-.004-.989.14a.356.356 0 0 0-.152.243c-.023.172.098.36.172.457.21.277.516.469.82.512.047.004.09.008.133.008.508 0 .969-.395 1.008-.684.05-.363-.477-.606-.992-.676M30.758 12.672c-.04-.285-.547-.363-1.031-.297-.48.066-.95.281-.91.566.03.223.433.602.91.602.039 0 .082-.004.12-.008.321-.047.551-.246.665-.363.168-.176.265-.371.246-.5"/><path style="stroke:none;fill-rule:nonzero;fill:#fff;fill-opacity:1" d="M38.719 24.852c-.176-.532-.746-.704-1.696-.508-2.812.578-3.82.176-4.152-.067 2.188-3.308 3.988-7.312 4.957-11.047.461-1.77.715-3.41.734-4.75.024-1.468-.226-2.55-.746-3.21-2.097-2.66-5.168-4.086-8.89-4.125-2.555-.028-4.719.62-5.137.804a12.764 12.764 0 0 0-2.89-.367c-1.922-.031-3.579.426-4.954 1.355a22.387 22.387 0 0 0-4.027-1.046c-3.262-.524-5.852-.13-7.703 1.175C2.012 4.617.992 7.398 1.188 11.32c.066 1.32.824 5.383 2.019 9.274 1.57 5.117 3.281 8.015 5.078 8.613.211.07.453.117.723.117.656 0 1.457-.293 2.297-1.293a82.058 82.058 0 0 1 3.164-3.562c.707.379 1.484.59 2.277.61.004.023.004.042.008.062-.16.187-.293.351-.402.492-.551.695-.665.84-2.438 1.203-.504.102-1.844.375-1.863 1.309-.02 1.02 1.582 1.449 1.765 1.492.637.16 1.25.238 1.836.238 1.422 0 2.672-.465 3.676-1.363-.031 3.629.121 7.21.559 8.3.36.891 1.238 3.075 4.011 3.075.407 0 .852-.047 1.344-.153 2.895-.617 4.153-1.89 4.637-4.691.262-1.5.707-5.074.918-6.992.445.137 1.015.199 1.629.199 1.289 0 2.773-.273 3.703-.703 1.047-.48 2.934-1.664 2.59-2.695Zm-6.89-12.965c-.013.566-.09 1.082-.173 1.617-.09.578-.183 1.176-.207 1.898-.02.707.067 1.438.153 2.149.175 1.433.351 2.906-.336 4.36a5.753 5.753 0 0 1-.305-.622c-.086-.207-.27-.539-.527-.996-1-1.781-3.344-5.953-2.145-7.656.36-.508 1.266-1.032 3.54-.75ZM29.07 2.293c3.332.07 5.97 1.312 7.836 3.684C38.34 7.793 36.762 16.07 32.2 23.21c-.047-.059-.09-.117-.14-.176a.858.858 0 0 0-.055-.07c1.18-1.938.945-3.852.742-5.55-.086-.696-.164-1.356-.144-1.974.02-.656.109-1.218.191-1.761.105-.672.21-1.364.18-2.18a.856.856 0 0 0 .02-.309c-.075-.78-.973-3.129-2.81-5.25-1.003-1.16-2.464-2.46-4.464-3.336.86-.175 2.035-.343 3.351-.312ZM10.418 27.301c-.922 1.101-1.559.887-1.77.82-1.363-.453-2.945-3.32-4.34-7.863-1.206-3.934-1.913-7.887-1.968-8.996-.176-3.504.676-5.95 2.539-7.262 3.035-2.137 8.02-.86 10.02-.207-.028.027-.06.05-.086.082-3.286 3.297-3.208 8.938-3.2 9.281 0 .133.008.32.024.578.058.95.164 2.715-.117 4.711-.262 1.86.312 3.676 1.578 4.989.132.136.27.261.41.382a81.67 81.67 0 0 0-3.09 3.485Zm3.512-4.66c-1.02-1.059-1.48-2.528-1.27-4.036.297-2.113.188-3.949.13-4.937-.009-.14-.017-.262-.02-.355.48-.422 2.703-1.61 4.289-1.247.726.164 1.168.653 1.351 1.496.95 4.368.125 6.184-.539 7.649-.137.3-.266.582-.375.879l-.086.226c-.215.579-.414 1.114-.539 1.622-1.086-.004-2.14-.465-2.941-1.297Zm.168 5.886a2.562 2.562 0 0 1-.77-.328c.14-.066.387-.156.82-.242 2.082-.426 2.403-.727 3.106-1.613.164-.203.344-.438.598-.715.378-.422.55-.352.863-.223.254.106.5.422.598.77.046.164.101.472-.07.715-1.47 2.043-3.61 2.02-5.145 1.636Zm10.906 10.086c-2.55.543-3.453-.75-4.047-2.226-.387-.953-.574-5.258-.441-10.008a.564.564 0 0 0-.024-.184 2.712 2.712 0 0 0-.07-.336c-.2-.691-.684-1.27-1.266-1.507-.234-.098-.656-.27-1.168-.141.11-.445.297-.95.504-1.492l.086-.23c.094-.259.215-.528.344-.81.695-1.53 1.64-3.624.613-8.359-.387-1.77-1.676-2.636-3.625-2.437-1.172.12-2.242.59-2.777.86-.113.058-.219.112-.317.167.149-1.785.711-5.12 2.817-7.234 1.328-1.328 3.094-1.985 5.246-1.95 4.242.067 6.96 2.231 8.496 4.036 1.32 1.55 2.04 3.117 2.324 3.96-2.148-.218-3.613.204-4.351 1.258-1.614 2.29.879 6.735 2.078 8.872.222.39.41.73.469.875.39.937.898 1.566 1.265 2.023.113.14.223.277.309.398-.653.184-1.82.618-1.715 2.77-.086 1.082-.7 6.14-1.008 7.93-.41 2.363-1.285 3.242-3.742 3.765Zm10.64-12.101c-.667.304-1.78.535-2.84.586-1.167.054-1.761-.13-1.902-.243-.066-1.343.438-1.484.97-1.632.085-.024.163-.047.245-.075.047.04.102.079.16.118.938.617 2.614.683 4.98.199.009-.004.016-.004.024-.008-.316.297-.863.695-1.636 1.055Zm0 0"/></svg>