<svg xmlns="http://www.w3.org/2000/svg" width="40" height="40"><path style="stroke:none;fill-rule:evenodd;fill:#00d8ff;fill-opacity:1" d="M23.57 19.969a3.57 3.57 0 0 1-3.57 3.57 3.573 3.573 0 0 1 0-7.145 3.573 3.573 0 0 1 3.57 3.575Zm0 0"/><path style="fill:none;stroke-width:24;stroke-linecap:butt;stroke-linejoin:miter;stroke:#00d8ff;stroke-opacity:1;stroke-miterlimit:4" d="M269.527 135.608c67.372 0 129.916 9.71 177.098 25.95 56.838 19.532 91.786 49.213 91.786 76.095 0 27.98-37.033 59.472-98.04 79.716-46.195 15.252-106.929 23.262-170.844 23.262-65.561 0-127.612-7.516-174.3-23.426C36.194 297.015.643 265.085.643 237.653c0-26.663 33.357-56.124 89.372-75.656 47.402-16.514 111.482-26.389 179.512-26.389Zm0 0" transform="translate(.81 3.048) scale(.0712)"/><path style="fill:none;stroke-width:24;stroke-linecap:butt;stroke-linejoin:miter;stroke:#00d8ff;stroke-opacity:1;stroke-miterlimit:4" d="M180.759 186.905C214.389 128.585 254 79.21 291.637 46.455c45.372-39.5 88.549-54.917 111.81-41.53 24.25 13.99 33.028 61.83 20.026 124.813-9.766 47.62-33.192 104.185-65.178 159.596-32.698 56.784-70.224 106.819-107.367 139.298-46.962 41.037-92.389 55.905-116.145 42.19-23.097-13.277-31.93-56.948-20.848-115.213 9.327-49.267 32.808-109.781 66.769-168.704Zm0 0" transform="translate(.81 3.048) scale(.0712)"/><path style="fill:none;stroke-width:24;stroke-linecap:butt;stroke-linejoin:miter;stroke:#00d8ff;stroke-opacity:1;stroke-miterlimit:4" d="M180.813 289.499c-33.74-58.32-56.728-117.297-66.329-166.29-11.521-58.978-3.347-104.075 19.915-117.571 24.195-13.99 70.006 2.249 118.12 44.987 36.375 32.26 73.682 80.814 105.722 136.17 32.863 56.729 57.441 114.17 67.042 162.56 12.125 61.227 2.304 107.97-21.451 121.74-23.043 13.332-65.287-.767-110.275-39.5-37.965-32.699-78.674-83.228-112.744-142.096Zm0 0" transform="translate(.81 3.048) scale(.0712)"/></svg>