<svg xmlns="http://www.w3.org/2000/svg" width="40" height="40" viewBox="0 0 40 34"><path style="stroke:none;fill-rule:nonzero;fill:#61dafb;fill-opacity:1" d="M23.484 17c0 1.883-1.558 3.406-3.484 3.406S16.516 18.883 16.516 17c0-1.883 1.558-3.406 3.484-3.406s3.484 1.523 3.484 3.406Zm0 0"/><path style="fill:none;stroke-width:1;stroke-linecap:butt;stroke-linejoin:miter;stroke:#61dafb;stroke-opacity:1;stroke-miterlimit:4" d="M10.999 0c0-2.32-4.925-4.199-10.999-4.199-6.074 0-10.999 1.879-10.999 4.199S-6.074 4.199 0 4.199C6.074 4.199 10.999 2.32 10.999 0Zm0 0" transform="matrix(1.69974 0 0 1.6615 20 17)"/><path style="fill:none;stroke-width:1;stroke-linecap:butt;stroke-linejoin:miter;stroke:#61dafb;stroke-opacity:1;stroke-miterlimit:4" d="M11 0c0-2.318-4.925-4.199-11-4.2-6.075 0-11 1.88-11 4.2 0 2.318 4.925 4.199 11 4.2 6.075 0 11-1.88 11-4.2Zm0 0" transform="matrix(.84987 1.4389 -1.47202 .83075 20 17)"/><path style="fill:none;stroke-width:1;stroke-linecap:butt;stroke-linejoin:miter;stroke:#61dafb;stroke-opacity:1;stroke-miterlimit:4" d="M11 0c0-2.32-4.925-4.2-11-4.2C-6.076-4.2-11-2.318-11 0c0 2.32 4.925 4.2 11 4.2C6.076 4.2 11 2.318 11 0Zm0 0" transform="matrix(-.84987 1.4389 -1.47202 -.83075 20 17)"/></svg>