<svg xmlns="http://www.w3.org/2000/svg" width="256" height="297"><path style="stroke:none;fill-rule:nonzero;fill:#121212;fill-opacity:1" d="M141.676 0C218.046 0 256 36.348 256 94.414c0 43.43-26.707 71.754-62.785 76.473 30.457 6.14 48.258 23.605 51.539 58.066l.476 6.336.415 5.926.355 5.543.25 4.176.27 4.933.136 2.813.2 4.468.156 4.223.082 2.426.105 3.89.09 4.446.035 2.148.059 6.227.02 6.496.003 3.883h-78.761l.003-1.621.032-3.145.047-3.066.136-7.422.032-2.492.027-3.903-.004-2.492-.023-2.617-.032-2.055-.062-2.879-.094-3.047-.125-3.242-.16-3.457-.098-1.812-.16-2.832-.184-2.977-.289-4.203-.246-3.344a112.6 112.6 0 0 0-.246-3.02l-.203-1.933c-2.601-22.828-11.656-32.156-27.164-35.27l-1.305-.245a61.576 61.576 0 0 0-2.707-.407l-1.394-.164c-.238-.023-.473-.05-.711-.074l-1.442-.125-1.472-.106-1.5-.078-1.516-.058-1.543-.04-1.574-.019H0v-61.844h127.621c2.086 0 4.106-.039 6.067-.117l1.933-.097 1.895-.121 1.847-.149c.305-.027.61-.059.91-.086l1.786-.195a86.176 86.176 0 0 0 3.441-.473l1.656-.281c20.711-3.754 31.063-14.75 31.063-36.2 0-24.077-16.864-38.667-50.598-38.667H0V0ZM83.277 250.785c10.332 0 14.657 5.738 16.196 11.23l.203.79.168.78.11.618.042.309.078.601.059.59.023.29.031.57.012.277.008.543v29.504H0v-46.102Zm0 0"/></svg>