<svg xmlns="http://www.w3.org/2000/svg" width="40" height="40" viewBox="0 0 40 30"><path style="stroke:none;fill-rule:nonzero;fill:#cf649a;fill-opacity:1" d="M34.422 17.234a8.24 8.24 0 0 0-3.625.844c-.375-.742-.75-1.39-.813-1.875-.07-.562-.156-.906-.07-1.578s.477-1.625.477-1.703c-.008-.07-.086-.414-.891-.422-.805-.008-1.5.156-1.578.367-.078.211-.235.695-.336 1.195-.14.735-1.61 3.336-2.445 4.704-.274-.532-.508-1-.555-1.375-.07-.563-.156-.907-.07-1.578.086-.672.476-1.626.476-1.704-.008-.07-.086-.414-.89-.421-.805-.008-1.5.156-1.579.367-.078.21-.164.71-.335 1.195-.165.484-2.118 4.828-2.625 5.96-.258.58-.485 1.04-.649 1.352-.164.313-.008.024-.023.055l-.22.414v.008c-.108.195-.226.383-.28.383-.04 0-.118-.524.015-1.242.29-1.508.992-3.86.985-3.946 0-.039.132-.453-.453-.664-.57-.21-.774.14-.82.14-.048 0-.087.126-.087.126s.633-2.648-1.21-2.648c-1.157 0-2.75 1.257-3.54 2.406-.5.273-1.562.851-2.687 1.468-.43.235-.875.485-1.297.711l-.086-.093c-2.234-2.383-6.367-4.07-6.195-7.274.062-1.164.468-4.234 7.937-7.953 6.117-3.047 11.016-2.21 11.867-.351 1.211 2.656-2.617 7.593-8.976 8.304-2.422.274-3.696-.664-4.016-1.015-.336-.368-.383-.383-.508-.313-.203.11-.078.438 0 .633.188.492.97 1.367 2.297 1.805 1.164.382 4.008.593 7.445-.735 3.852-1.492 6.86-5.633 5.977-9.094C24.141.164 18.297-.992 12.773.97c-3.289 1.172-6.851 3-9.414 5.398C.313 9.211-.17 11.695.031 12.727c.711 3.68 5.782 6.078 7.813 7.851-.102.055-.196.11-.282.156-1.015.5-4.882 2.524-5.851 4.664-1.094 2.422.172 4.165 1.016 4.399 2.609.726 5.28-.578 6.726-2.727 1.438-2.148 1.266-4.937.602-6.21l-.024-.047.797-.47a47.521 47.521 0 0 1 1.469-.827c-.25.68-.43 1.484-.524 2.656-.109 1.375.454 3.156 1.196 3.86.328.304.719.312.96.312.86 0 1.25-.711 1.68-1.563.532-1.039 1-2.242 1-2.242s-.586 3.258 1.016 3.258c.586 0 1.172-.758 1.438-1.149v.008s.015-.023.046-.078c.032-.047.063-.098.094-.148v-.016a61.89 61.89 0 0 0 1.54-2.875c1.007-1.984 1.976-4.469 1.976-4.469s.093.61.383 1.61c.171.593.546 1.242.835 1.875-.234.328-.375.515-.375.515l.008.008c-.187.25-.398.516-.617.781-.797.953-1.75 2.04-1.875 2.352-.148.367-.117.64.172.86.21.156.586.187.984.156a4.385 4.385 0 0 0 1.47-.336c.39-.141.835-.352 1.265-.664.781-.579 1.258-1.399 1.21-2.493-.023-.601-.218-1.195-.46-1.757.07-.102.14-.204.21-.313 1.235-1.805 2.188-3.789 2.188-3.789s.094.61.383 1.61c.148.507.445 1.062.71 1.609-1.155.945-1.882 2.039-2.132 2.758-.46 1.328-.101 1.93.578 2.07.305.062.742-.078 1.07-.219.407-.133.899-.36 1.352-.695.781-.578 1.531-1.383 1.492-2.469-.023-.5-.156-.992-.336-1.46.985-.407 2.258-.642 3.875-.446 3.477.406 4.164 2.578 4.032 3.484-.133.906-.86 1.406-1.102 1.563-.242.148-.32.203-.297.312.031.164.14.156.352.125.289-.047 1.828-.742 1.89-2.414.094-2.148-1.945-4.492-5.562-4.469Zm-26.813 9.04c-1.148 1.257-2.765 1.734-3.453 1.328-.742-.43-.453-2.282.961-3.618.86-.812 1.977-1.562 2.711-2.023.164-.102.414-.25.711-.43.047-.031.078-.047.078-.047.055-.03.117-.07.18-.109.523 1.906.023 3.578-1.188 4.898Zm8.399-5.712c-.399.977-1.242 3.485-1.75 3.344-.438-.117-.703-2.015-.086-3.89.312-.946.976-2.07 1.367-2.508.633-.703 1.32-.938 1.492-.649.203.375-.773 3.094-1.023 3.703Zm6.93 3.313c-.172.086-.329.148-.399.102-.055-.032.07-.149.07-.149s.868-.93 1.211-1.36c.196-.25.43-.538.68-.866v.093c0 1.125-1.078 1.875-1.563 2.18Zm5.343-1.219c-.125-.093-.11-.383.313-1.289.164-.36.539-.96 1.187-1.531.078.234.125.46.117.672-.007 1.406-1.007 1.93-1.617 2.148Zm0 0"/></svg>