<svg xmlns="http://www.w3.org/2000/svg" width="40" height="40"><path style="stroke:none;fill-rule:nonzero;fill:#1a171b;fill-opacity:1" d="M40 20.05c0 11.005-8.953 19.923-20 19.923S0 31.055 0 20.05C0 9.047 8.953.129 20 .129S40 9.047 40 20.05Zm0 0"/><path style="stroke:none;fill-rule:nonzero;fill:#fff;fill-opacity:1" d="M28.703 7.488c-2.027.074-3.8 1.188-5.117 2.727-1.461 1.691-2.43 3.695-3.129 5.738-1.254-1.02-2.219-2.344-4.227-2.922-1.55-.441-3.183-.258-4.68.856-.71.527-1.202 1.324-1.433 2.074-.601 1.953.633 3.691 1.195 4.312l1.227 1.313c.254.254.863.926.563 1.887-.32 1.043-1.586 1.718-2.883 1.32-.578-.176-1.41-.605-1.223-1.211.078-.246.254-.434.352-.645.086-.183.129-.324.152-.402.238-.773-.086-1.773-.914-2.027-.774-.238-1.563-.051-1.871.941-.348 1.125.195 3.168 3.094 4.059 3.394 1.039 6.265-.801 6.671-3.203.258-1.504-.425-2.621-1.671-4.059l-1.02-1.121c-.617-.613-.828-1.66-.191-2.465.539-.676 1.308-.965 2.562-.625 1.832.496 2.652 1.762 4.016 2.785-.563 1.836-.934 3.684-1.266 5.34l-.203 1.235c-.973 5.093-1.719 7.89-3.652 9.496-.39.273-.946.687-1.785.714-.442.016-.582-.285-.59-.417-.008-.31.25-.45.425-.586.258-.141.649-.375.622-1.122-.028-.878-.762-1.644-1.82-1.609-.794.027-2.005.77-1.958 2.133.047 1.406 1.364 2.46 3.348 2.394 1.058-.035 3.43-.468 5.765-3.23 2.715-3.172 3.477-6.805 4.047-9.461l.641-3.512c.352.043.73.07 1.145.078 3.382.075 5.078-1.671 5.101-2.945.016-.765-.504-1.523-1.238-1.508-.524.016-1.184.364-1.34 1.086-.156.707 1.078 1.348.113 1.969-.683.441-1.91.75-3.636.5l.316-1.73c.64-3.278 1.43-7.305 4.426-7.407.218-.008 1.02.012 1.039.54.004.175-.04.218-.246.62-.211.317-.29.582-.282.891.032.836.668 1.387 1.594 1.352 1.235-.04 1.59-1.239 1.57-1.856-.05-1.445-1.582-2.36-3.609-2.297Zm0 0"/></svg>