<svg xmlns="http://www.w3.org/2000/svg" width="40" height="40"><path style="stroke:none;fill-rule:nonzero;fill:#007acc;fill-opacity:1" d="M0 20v20h40V0H0Zm0 0"/><path style="stroke:none;fill-rule:nonzero;fill:#fff;fill-opacity:1" d="m8.844 20.133-.012 1.637h5.207v14.793h3.684V21.77h5.207v-1.606c0-.887-.02-1.633-.047-1.652-.02-.024-3.188-.035-7.028-.032l-6.992.02ZM32.277 18.453a4.99 4.99 0 0 1 2.5 1.442c.368.394.914 1.113.961 1.285.012.05-1.73 1.218-2.781 1.87-.039.028-.191-.14-.363-.394-.516-.746-1.055-1.07-1.88-1.129-1.214-.082-1.995.551-1.987 1.614 0 .312.043.496.171.75.266.55.762.882 2.317 1.554 2.863 1.23 4.09 2.043 4.851 3.2.852 1.289 1.043 3.347.465 4.875-.636 1.664-2.21 2.796-4.426 3.167-.687.122-2.312.102-3.046-.03-1.61-.286-3.133-1.079-4.07-2.122-.372-.406-1.087-1.465-1.044-1.543.02-.023.184-.125.367-.234.18-.102.852-.488 1.489-.856l1.148-.668.242.356c.336.515 1.07 1.219 1.516 1.453 1.277.676 3.031.578 3.895-.195.367-.336.52-.684.52-1.2 0-.464-.06-.668-.302-1.015-.308-.445-.945-.82-2.746-1.602-2.066-.886-2.953-1.441-3.765-2.316-.47-.508-.914-1.32-1.098-2-.152-.567-.191-1.98-.07-2.55.425-1.997 1.93-3.388 4.101-3.798.703-.137 2.34-.086 3.035.086Zm0 0"/></svg>